<svg width="190" height="58" viewBox="0 0 190 58" fill="none" xmlns="http://www.w3.org/2000/svg">
<path d="M182.655 57.7808H7.34446C3.28871 57.7808 0 54.4928 0 50.4363V7.34446C0 3.28871 3.28792 0 7.34446 0H182.656C186.711 0 190 3.28792 190 7.34446V50.4363C189.999 54.4928 186.711 57.7808 182.655 57.7808Z" fill="black"/>
<path d="M11.7948 23.6098C8.71241 28.9579 10.6718 37.0749 14.0802 41.9962C15.7812 44.4572 17.5043 46.6654 19.863 46.6654C19.9071 46.6654 19.952 46.6646 19.9976 46.6622C21.1065 46.6181 21.9074 46.2771 22.6815 45.9472C23.551 45.5762 24.4511 45.1935 25.8616 45.1935C27.2035 45.1935 28.0595 45.5644 28.8872 45.922C29.7039 46.2756 30.5442 46.641 31.7869 46.6174C34.444 46.5677 36.0758 44.1847 37.5154 42.082C39.018 39.8872 39.7716 37.7561 40.0252 36.941L40.0354 36.9087C40.0843 36.7638 40.015 36.6063 39.8764 36.5425C39.8764 36.5425 39.859 36.5347 39.8551 36.5331C39.3873 36.3417 35.2819 34.5202 35.2386 29.5572C35.1985 25.5243 38.3179 23.3893 38.9439 23.0018L38.9731 22.9829C39.0408 22.9396 39.0881 22.8703 39.1046 22.7915C39.1203 22.712 39.1038 22.6301 39.0581 22.5632C36.905 19.4123 33.6045 18.9374 32.276 18.8807C32.0838 18.861 31.8846 18.8516 31.6845 18.8516C30.1237 18.8516 28.6289 19.4406 27.4272 19.9147C26.5979 20.2415 25.882 20.5243 25.3883 20.5243C24.8331 20.5243 24.1125 20.2384 23.2793 19.9076C22.1633 19.465 20.8994 18.9634 19.5614 18.9634C19.5291 18.9634 19.4984 18.9642 19.4676 18.965C16.3553 19.0106 13.4155 20.7912 11.7948 23.6098Z" fill="white"/>
<path d="M32.2791 10.2083C30.3953 10.2847 28.1343 11.4447 26.7837 13.0277C25.6347 14.357 24.5141 16.5755 24.8094 18.8105C24.8283 18.9506 24.9425 19.0577 25.0826 19.0695C25.2102 19.079 25.3394 19.0845 25.4685 19.0845C27.3106 19.0845 29.2983 18.0647 30.656 16.4235C32.0845 14.6909 32.8067 12.4669 32.5886 10.4745C32.5712 10.3178 32.4342 10.2012 32.2791 10.2083Z" fill="white"/>
<path d="M53.9582 10.0544H57.5312C58.4684 10.0544 59.3008 10.2482 60.0269 10.6348C60.7537 11.0215 61.3192 11.557 61.7232 12.2406C62.1272 12.9242 62.3296 13.7007 62.3296 14.5685C62.3296 15.4372 62.1272 16.2129 61.7232 16.8965C61.3192 17.58 60.7537 18.1156 60.0269 18.5022C59.3 18.8889 58.4684 19.0826 57.5312 19.0826H53.9582V10.0544ZM57.48 18.4904C58.314 18.4904 59.0495 18.325 59.6859 17.9935C60.3222 17.6627 60.812 17.2005 61.1562 16.6067C61.5003 16.0137 61.672 15.334 61.672 14.5685C61.672 13.8031 61.4995 13.1242 61.1562 12.5304C60.812 11.9374 60.3222 11.4751 59.6859 11.1436C59.0495 10.8128 58.314 10.6467 57.48 10.6467H54.6166V18.4896H57.48V18.4904Z" fill="white"/>
<path d="M65.3159 18.6963C64.804 18.4041 64.4023 17.9977 64.1102 17.4772C63.818 16.9566 63.6715 16.3699 63.6715 15.7163C63.6715 15.0626 63.818 14.4759 64.1102 13.9554C64.4023 13.4348 64.8048 13.0292 65.3159 12.7363C65.8278 12.4441 66.4011 12.2976 67.0382 12.2976C67.6745 12.2976 68.2486 12.4441 68.7605 12.7363C69.2724 13.0284 69.674 13.4348 69.9662 13.9554C70.2584 14.4759 70.4049 15.0626 70.4049 15.7163C70.4049 16.3699 70.2584 16.9566 69.9662 17.4772C69.674 17.9977 69.2716 18.4041 68.7605 18.6963C68.2486 18.9884 67.6745 19.1349 67.0382 19.1349C66.4011 19.1349 65.8278 18.9884 65.3159 18.6963ZM68.4242 18.193C68.8329 17.952 69.155 17.6173 69.3913 17.1866C69.6276 16.7566 69.7457 16.2667 69.7457 15.7163C69.7457 15.1658 69.6276 14.6759 69.3913 14.2459C69.155 13.816 68.8322 13.4805 68.4242 13.2395C68.0155 12.9985 67.5532 12.878 67.0374 12.878C66.5216 12.878 66.0593 12.9985 65.6506 13.2395C65.2418 13.4805 64.9197 13.816 64.6835 14.2459C64.4472 14.6759 64.3291 15.1666 64.3291 15.7163C64.3291 16.2667 64.4472 16.7566 64.6835 17.1866C64.9197 17.6166 65.2426 17.952 65.6506 18.193C66.0593 18.434 66.5216 18.5545 67.0374 18.5545C67.554 18.5537 68.0163 18.434 68.4242 18.193Z" fill="white"/>
<path d="M81.8335 12.3503L79.2796 19.0837H78.6732L76.4028 13.2402L74.1197 19.0837H73.5267L70.9728 12.3503H71.5918L73.8362 18.3615L76.1319 12.3503H76.6863L78.9693 18.3481L81.2397 12.3503H81.8335Z" fill="white"/>
<path d="M88.6179 13.0332C89.1078 13.523 89.3535 14.2286 89.3535 15.1485V19.0829H88.7085V15.2004C88.7085 14.4436 88.5171 13.8679 88.1344 13.4718C87.7517 13.0765 87.2162 12.8788 86.5286 12.8788C85.7372 12.8788 85.1142 13.1151 84.6583 13.5884C84.2023 14.0617 83.9747 14.698 83.9747 15.4973V19.0829H83.3297V12.3496H83.9487V13.8073C84.181 13.3348 84.5268 12.9646 84.9875 12.6977C85.4474 12.4315 85.9916 12.2976 86.6192 12.2976C87.4611 12.2976 88.1281 12.5433 88.6179 13.0332Z" fill="white"/>
<path d="M92.0123 9.51245H92.6573V19.0833H92.0123V9.51245Z" fill="white"/>
<path d="M96.2871 18.6963C95.7752 18.4041 95.3735 17.9977 95.0813 17.4772C94.7892 16.9566 94.6427 16.3699 94.6427 15.7163C94.6427 15.0626 94.7892 14.4759 95.0813 13.9554C95.3735 13.4348 95.7759 13.0292 96.2871 12.7363C96.7982 12.4441 97.3723 12.2976 98.0094 12.2976C98.6457 12.2976 99.2198 12.4441 99.7317 12.7363C100.244 13.0284 100.645 13.4348 100.938 13.9554C101.23 14.4759 101.377 15.0626 101.377 15.7163C101.377 16.3699 101.23 16.9566 100.938 17.4772C100.646 17.9977 100.244 18.4041 99.7317 18.6963C99.2198 18.9884 98.6457 19.1349 98.0094 19.1349C97.3723 19.1349 96.7989 18.9884 96.2871 18.6963ZM99.3954 18.193C99.8034 17.952 100.126 17.6173 100.362 17.1866C100.599 16.7566 100.717 16.2667 100.717 15.7163C100.717 15.1658 100.599 14.6759 100.362 14.2459C100.126 13.816 99.8034 13.4805 99.3954 13.2395C98.9867 12.9985 98.5244 12.878 98.0086 12.878C97.4928 12.878 97.0305 12.9985 96.6218 13.2395C96.213 13.4805 95.8909 13.816 95.6547 14.2459C95.4176 14.6759 95.2995 15.1666 95.2995 15.7163C95.2995 16.2667 95.4176 16.7566 95.6547 17.1866C95.8909 17.6166 96.2138 17.952 96.6218 18.193C97.0305 18.434 97.4928 18.5545 98.0086 18.5545C98.5252 18.5537 98.9875 18.434 99.3954 18.193Z" fill="white"/>
<path d="M107.541 12.9363C107.988 13.3623 108.212 13.9876 108.212 14.813V19.0821H107.593V17.8827C107.378 18.2781 107.064 18.586 106.651 18.8049C106.238 19.0239 105.744 19.1341 105.167 19.1341C104.419 19.1341 103.828 18.9577 103.394 18.6049C102.959 18.2521 102.743 17.7882 102.743 17.2118C102.743 16.6526 102.943 16.199 103.343 15.8509C103.743 15.5028 104.381 15.3288 105.258 15.3288H107.567V14.787C107.567 14.1593 107.397 13.6821 107.057 13.3553C106.718 13.0284 106.221 12.8654 105.567 12.8654C105.12 12.8654 104.692 12.9426 104.284 13.0977C103.875 13.2529 103.529 13.4592 103.245 13.7167L102.923 13.2521C103.258 12.9513 103.662 12.7166 104.136 12.5488C104.608 12.3811 105.103 12.2976 105.619 12.2976C106.453 12.2976 107.094 12.511 107.541 12.9363ZM106.683 18.219C107.075 17.9607 107.369 17.5866 107.567 17.0968V15.8328H105.271C104.609 15.8328 104.129 15.9533 103.833 16.1943C103.536 16.4353 103.388 16.766 103.388 17.1874C103.388 17.626 103.551 17.9725 103.878 18.2253C104.205 18.4789 104.665 18.6057 105.259 18.6057C105.816 18.6057 106.292 18.4765 106.683 18.219Z" fill="white"/>
<path d="M116.867 9.51245V19.0833H116.234V17.4964C115.967 18.0209 115.593 18.4249 115.112 18.7092C114.63 18.9927 114.084 19.1352 113.474 19.1352C112.846 19.1352 112.278 18.9887 111.771 18.6966C111.264 18.4044 110.866 18.0004 110.578 17.4838C110.29 16.968 110.146 16.3789 110.146 15.7166C110.146 15.0543 110.29 14.4636 110.578 13.9431C110.866 13.4225 111.264 13.0185 111.771 12.7303C112.278 12.442 112.846 12.2979 113.474 12.2979C114.076 12.2979 114.616 12.4397 115.093 12.724C115.57 13.0075 115.947 13.4036 116.222 13.9108V9.51245H116.867ZM114.899 18.1933C115.307 17.9524 115.63 17.6177 115.866 17.1869C116.103 16.7569 116.221 16.2671 116.221 15.7166C116.221 15.1661 116.103 14.6763 115.866 14.2463C115.63 13.8163 115.307 13.4808 114.899 13.2398C114.491 12.9988 114.028 12.8783 113.513 12.8783C112.997 12.8783 112.534 12.9988 112.126 13.2398C111.717 13.4808 111.395 13.8163 111.159 14.2463C110.922 14.6763 110.803 15.1669 110.803 15.7166C110.803 16.2671 110.922 16.7569 111.159 17.1869C111.395 17.6169 111.718 17.9524 112.126 18.1933C112.534 18.4343 112.997 18.5548 113.513 18.5548C114.028 18.554 114.491 18.4343 114.899 18.1933Z" fill="white"/>
<path d="M123.813 18.6963C123.301 18.4041 122.9 17.9977 122.607 17.4772C122.315 16.9566 122.169 16.3699 122.169 15.7163C122.169 15.0626 122.315 14.4759 122.607 13.9554C122.9 13.4348 123.302 13.0292 123.813 12.7363C124.325 12.4441 124.898 12.2976 125.535 12.2976C126.172 12.2976 126.746 12.4441 127.258 12.7363C127.77 13.0284 128.171 13.4348 128.464 13.9554C128.756 14.4759 128.903 15.0626 128.903 15.7163C128.903 16.3699 128.756 16.9566 128.464 17.4772C128.172 17.9977 127.77 18.4041 127.258 18.6963C126.746 18.9884 126.172 19.1349 125.535 19.1349C124.898 19.1349 124.324 18.9884 123.813 18.6963ZM126.922 18.193C127.329 17.952 127.652 17.6173 127.889 17.1866C128.125 16.7566 128.243 16.2667 128.243 15.7163C128.243 15.1658 128.125 14.6759 127.889 14.2459C127.652 13.816 127.329 13.4805 126.922 13.2395C126.513 12.9985 126.051 12.878 125.535 12.878C125.019 12.878 124.557 12.9985 124.148 13.2395C123.739 13.4805 123.417 13.816 123.181 14.2459C122.945 14.6759 122.826 15.1666 122.826 15.7163C122.826 16.2667 122.945 16.7566 123.181 17.1866C123.417 17.6166 123.74 17.952 124.148 18.193C124.557 18.434 125.019 18.5545 125.535 18.5545C126.051 18.5545 126.513 18.434 126.922 18.193Z" fill="white"/>
<path d="M136.188 13.0332C136.678 13.523 136.924 14.2286 136.924 15.1485V19.0829H136.279V15.2004C136.279 14.4436 136.087 13.8679 135.705 13.4718C135.322 13.0765 134.786 12.8788 134.099 12.8788C133.307 12.8788 132.685 13.1151 132.229 13.5884C131.773 14.0617 131.545 14.698 131.545 15.4973V19.0829H130.9V12.3496H131.519V13.8073C131.751 13.3348 132.097 12.9646 132.558 12.6977C133.018 12.4315 133.562 12.2976 134.19 12.2976C135.032 12.2976 135.698 12.5433 136.188 13.0332Z" fill="white"/>
<path d="M146.239 18.6572C146.075 18.8124 145.871 18.9305 145.626 19.0116C145.381 19.0935 145.125 19.1345 144.859 19.1345C144.274 19.1345 143.823 18.973 143.505 18.6509C143.186 18.3288 143.027 17.8792 143.027 17.3027V12.9044H141.789V12.35H143.027V10.8796H143.672V12.35H145.814V12.9044H143.672V17.2389C143.672 17.6776 143.778 18.0107 143.988 18.2383C144.198 18.4659 144.51 18.5801 144.924 18.5801C145.345 18.5801 145.693 18.4556 145.969 18.206L146.239 18.6572Z" fill="white"/>
<path d="M153.319 13.0335C153.809 13.5233 154.054 14.2289 154.054 15.1488V19.0833H153.409V15.2007C153.409 14.4439 153.218 13.8683 152.835 13.4721C152.452 13.0768 151.917 12.8791 151.229 12.8791C150.438 12.8791 149.815 13.1154 149.359 13.5887C148.903 14.062 148.675 14.6983 148.675 15.4976V19.0833H148.03V9.51245H148.675V13.7564C148.908 13.2918 149.251 12.9335 149.707 12.6791C150.163 12.4255 150.7 12.2987 151.319 12.2987C152.162 12.2979 152.828 12.5436 153.319 13.0335Z" fill="white"/>
<path d="M162.412 15.8722H156.621C156.638 16.3967 156.771 16.8637 157.021 17.2716C157.27 17.6803 157.607 17.9961 158.033 18.2198C158.46 18.4435 158.938 18.5553 159.472 18.5553C159.91 18.5553 160.317 18.4757 160.691 18.3167C161.065 18.1576 161.377 17.9229 161.626 17.6134L162 18.0387C161.708 18.3915 161.34 18.6624 160.898 18.8514C160.455 19.0404 159.976 19.1349 159.46 19.1349C158.789 19.1349 158.191 18.9884 157.667 18.6963C157.142 18.4041 156.731 18.0001 156.435 17.4835C156.138 16.9676 155.99 16.3786 155.99 15.7163C155.99 15.0626 156.129 14.4759 156.409 13.9554C156.688 13.4348 157.074 13.0292 157.563 12.7363C158.053 12.4441 158.604 12.2976 159.214 12.2976C159.824 12.2976 160.372 12.4417 160.858 12.73C161.344 13.0182 161.727 13.4198 162.007 13.9357C162.286 14.4515 162.426 15.0366 162.426 15.6903L162.412 15.8722ZM157.936 13.182C157.557 13.3931 157.254 13.6892 157.026 14.0719C156.799 14.4546 156.667 14.887 156.632 15.3682H161.792C161.766 14.887 161.637 14.457 161.406 14.0782C161.173 13.7002 160.868 13.4033 160.49 13.1883C160.111 12.9733 159.686 12.8662 159.212 12.8662C158.74 12.8662 158.314 12.9717 157.936 13.182Z" fill="white"/>
<path d="M63.5088 39.0446H55.7934L54.2727 42.6153H51.3187L58.2623 27.1853H61.084L68.0496 42.6153H65.0515L63.5088 39.0446ZM62.5606 36.7963L59.6507 30.0511L56.7628 36.7963H62.5606Z" fill="white"/>
<path d="M79.3471 31.4616C80.2511 31.9617 80.9599 32.6665 81.4742 33.5777C81.9884 34.4888 82.2459 35.5394 82.2459 36.7301C82.2459 37.9201 81.9884 38.9754 81.4742 39.8936C80.9599 40.8119 80.2504 41.5214 79.3471 42.0207C78.443 42.5208 77.4184 42.7705 76.2718 42.7705C74.6849 42.7705 73.428 42.2412 72.5027 41.1836V46.8931H69.7471V30.8457H72.3704V32.3885C72.8256 31.8301 73.3879 31.4112 74.0565 31.1316C74.7251 30.8528 75.4638 30.7126 76.2718 30.7126C77.4176 30.7119 78.443 30.9623 79.3471 31.4616ZM78.465 39.3967C79.1187 38.721 79.4463 37.8319 79.4463 36.7293C79.4463 35.6268 79.1195 34.7385 78.465 34.062C77.8106 33.3863 76.9774 33.0477 75.9631 33.0477C75.3015 33.0477 74.707 33.1989 74.1777 33.4997C73.6485 33.8013 73.2296 34.2313 72.9216 34.7897C72.6129 35.348 72.4586 35.9946 72.4586 36.7293C72.4586 37.4641 72.6129 38.1107 72.9216 38.669C73.2304 39.2274 73.6493 39.6574 74.1777 39.959C74.707 40.2606 75.3015 40.411 75.9631 40.411C76.9774 40.411 77.8106 40.0732 78.465 39.3967Z" fill="white"/>
<path d="M94.4689 31.4616C95.373 31.9617 96.0817 32.6665 96.596 33.5777C97.1102 34.4888 97.3678 35.5394 97.3678 36.7301C97.3678 37.9201 97.1102 38.9754 96.596 39.8936C96.0817 40.8119 95.3722 41.5214 94.4689 42.0207C93.5648 42.5208 92.5402 42.7705 91.3936 42.7705C89.8067 42.7705 88.5499 42.2412 87.6245 41.1836V46.8931H84.869V30.8457H87.4922V32.3885C87.9474 31.8301 88.5097 31.4112 89.1783 31.1316C89.8469 30.8528 90.5856 30.7126 91.3936 30.7126C92.5402 30.7119 93.5648 30.9623 94.4689 31.4616ZM93.5869 39.3967C94.2405 38.721 94.5681 37.8319 94.5681 36.7293C94.5681 35.6268 94.2413 34.7385 93.5869 34.062C92.9324 33.3863 92.0992 33.0477 91.0849 33.0477C90.4234 33.0477 89.8288 33.1989 89.2996 33.4997C88.7704 33.8013 88.3514 34.2313 88.0435 34.7897C87.7348 35.348 87.5804 35.9946 87.5804 36.7293C87.5804 37.4641 87.7348 38.1107 88.0435 38.669C88.3522 39.2274 88.7711 39.6574 89.2996 39.959C89.8288 40.2606 90.4234 40.411 91.0849 40.411C92.0992 40.411 92.9332 40.0732 93.5869 39.3967Z" fill="white"/>
<path d="M107.672 42.3283C106.562 41.9904 105.684 41.5423 105.038 40.9839L106.03 38.7576C106.662 39.2577 107.437 39.6648 108.356 39.9806C109.274 40.2972 110.196 40.4547 111.122 40.4547C112.268 40.4547 113.124 40.2712 113.69 39.9035C114.256 39.5365 114.539 39.0514 114.539 38.4489C114.539 38.0079 114.381 37.6441 114.065 37.3574C113.749 37.0707 113.348 36.8471 112.863 36.6848C112.378 36.5234 111.717 36.3399 110.88 36.1336C109.704 35.8548 108.752 35.5752 108.025 35.2956C107.297 35.0169 106.673 34.579 106.151 33.9844C105.629 33.389 105.368 32.585 105.368 31.5706C105.368 30.7185 105.6 29.9428 106.063 29.2451C106.526 28.5473 107.224 27.9921 108.157 27.5811C109.09 27.17 110.232 26.9636 111.585 26.9636C112.525 26.9636 113.452 27.0818 114.363 27.3164C115.274 27.5519 116.06 27.8898 116.721 28.3308L115.817 30.5571C115.141 30.1602 114.436 29.8594 113.701 29.653C112.966 29.4475 112.254 29.3443 111.563 29.3443C110.431 29.3443 109.59 29.5357 109.039 29.9176C108.488 30.2996 108.212 30.8068 108.212 31.4383C108.212 31.8794 108.37 32.2393 108.686 32.518C109.002 32.7976 109.403 33.0181 109.888 33.1796C110.373 33.3418 111.034 33.5253 111.872 33.7308C113.018 33.9954 113.959 34.2711 114.694 34.5577C115.428 34.8444 116.057 35.2815 116.578 35.869C117.099 36.4573 117.361 37.2503 117.361 38.2497C117.361 39.1018 117.129 39.8735 116.666 40.5642C116.203 41.2549 115.502 41.8061 114.561 42.2172C113.621 42.6283 112.474 42.8346 111.122 42.8346C109.932 42.8354 108.782 42.6661 107.672 42.3283Z" fill="white"/>
<path d="M127.015 41.9756C126.691 42.2402 126.298 42.4387 125.836 42.571C125.373 42.7033 124.885 42.7694 124.37 42.7694C123.077 42.7694 122.078 42.4316 121.372 41.7551C120.667 41.0794 120.314 40.095 120.314 38.8011V33.1356H118.374V30.9313H120.314V28.2419H123.069V30.9313H126.222V33.1356H123.069V38.7349C123.069 39.3083 123.209 39.7453 123.488 40.0462C123.767 40.3478 124.172 40.4982 124.7 40.4982C125.318 40.4982 125.832 40.3368 126.243 40.0131L127.015 41.9756Z" fill="white"/>
<path d="M130.962 41.9975C130.006 41.4833 129.261 40.7666 128.724 39.8484C128.188 38.9301 127.919 37.8906 127.919 36.729C127.919 35.5681 128.187 34.5326 128.724 33.6206C129.261 32.7094 130.006 31.9967 130.962 31.4825C131.917 30.9682 132.99 30.7107 134.18 30.7107C135.385 30.7107 136.465 30.9682 137.421 31.4825C138.376 31.9967 139.122 32.7094 139.658 33.6206C140.195 34.5318 140.463 35.5681 140.463 36.729C140.463 37.8898 140.195 38.9301 139.658 39.8484C139.122 40.7666 138.376 41.4833 137.421 41.9975C136.466 42.5118 135.385 42.7693 134.18 42.7693C132.99 42.7693 131.916 42.5125 130.962 41.9975ZM136.692 39.3963C137.354 38.7206 137.685 37.8315 137.685 36.729C137.685 35.6264 137.354 34.7381 136.692 34.0616C136.031 33.3859 135.194 33.0473 134.179 33.0473C133.165 33.0473 132.331 33.3851 131.678 34.0616C131.023 34.7373 130.696 35.6264 130.696 36.729C130.696 37.8315 131.023 38.7206 131.678 39.3963C132.331 40.072 133.165 40.4106 134.179 40.4106C135.194 40.4106 136.031 40.0728 136.692 39.3963Z" fill="white"/>
<path d="M149.919 30.7114V33.3347C149.683 33.2906 149.47 33.2685 149.279 33.2685C148.206 33.2685 147.369 33.5812 146.766 34.2057C146.164 34.8302 145.862 35.7303 145.862 36.9061V42.6157H143.106V30.8445H145.73V32.5637C146.524 31.3288 147.92 30.7114 149.919 30.7114Z" fill="white"/>
<path d="M163.166 37.611H153.93C154.092 38.4781 154.515 39.1648 155.197 39.6719C155.881 40.1791 156.729 40.4327 157.743 40.4327C159.037 40.4327 160.102 40.0066 160.94 39.1545L162.417 40.8517C161.887 41.484 161.219 41.9613 160.411 42.2842C159.603 42.6078 158.692 42.7693 157.677 42.7693C156.384 42.7693 155.245 42.5125 154.26 41.9975C153.276 41.4833 152.515 40.7666 151.979 39.8484C151.442 38.9301 151.174 37.8906 151.174 36.729C151.174 35.5823 151.435 34.5507 151.957 33.6316C152.478 32.7134 153.202 31.9967 154.128 31.4825C155.054 30.9682 156.097 30.7107 157.258 30.7107C158.404 30.7107 159.429 30.9643 160.334 31.4714C161.238 31.9786 161.942 32.6913 162.45 33.6096C162.957 34.5278 163.21 35.5902 163.21 36.7951C163.21 36.9865 163.195 37.2582 163.166 37.611ZM155.021 33.6986C154.411 34.2207 154.04 34.9145 153.908 35.7816H160.587C160.469 34.9295 160.109 34.2388 159.507 33.7096C158.904 33.1804 158.154 32.9158 157.258 32.9158C156.377 32.9158 155.63 33.1772 155.021 33.6986Z" fill="white"/>
</svg>
