<svg width="60" height="60" viewBox="0 0 60 60" fill="none" xmlns="http://www.w3.org/2000/svg">
<circle cx="30" cy="30" r="30" fill="#1E57EE"/>
<path d="M36.329 23.2485C34.7872 23.2485 33.345 23.6717 32.1001 24.3975V22.7609C32.1001 20.8966 27.7568 19.8906 23.6703 19.8906C19.5841 19.8906 15.2412 20.8966 15.2412 22.7609V34.9705C15.2412 36.8351 19.5842 37.8413 23.671 37.8413C26.0169 37.8413 28.2205 37.529 29.7881 36.9856C31.335 38.8888 33.6916 40.1087 36.3296 40.1087C40.978 40.1084 44.7594 36.3268 44.7594 31.6783C44.7594 27.0302 40.9778 23.2485 36.3296 23.2485L36.329 23.2485ZM29.1656 27.2568C27.7057 27.6944 25.7147 27.9462 23.6704 27.9462C18.9051 27.9462 15.9791 26.704 15.9791 25.8133V23.9921C17.3894 25.0642 20.6023 25.6317 23.6704 25.6317C26.7386 25.6317 29.9519 25.0642 31.3625 23.9921V24.8823C30.4859 25.5248 29.7397 26.3304 29.1658 27.2569L29.1656 27.2568ZM15.9789 30.0968C17.3893 31.1689 20.6021 31.7364 23.6703 31.7364C25.1819 31.7364 26.6319 31.6022 27.9153 31.3596C27.9113 31.4662 27.8992 31.5709 27.8992 31.6785C27.8992 32.346 27.9855 32.9925 28.1328 33.6157C26.8242 33.8932 25.2644 34.0509 23.6703 34.0509C18.9049 34.0507 15.9789 32.8088 15.9789 31.918L15.9789 30.0968ZM27.9767 30.5984C26.6927 30.8574 25.2152 30.9983 23.6706 30.9983C18.9053 30.9983 15.9793 29.7564 15.9793 28.8656V27.0445C17.3896 28.1166 20.6025 28.6841 23.6706 28.6841C25.5076 28.6841 27.2498 28.4945 28.684 28.1492C28.3305 28.9117 28.0878 29.7339 27.9767 30.5985V30.5984ZM23.6706 20.6287C28.4363 20.6287 31.3627 21.8709 31.3627 22.7612C31.3627 23.6519 28.4364 24.8938 23.6706 24.8938C18.9053 24.8941 15.9793 23.6519 15.9793 22.7612C15.9793 21.8709 18.9055 20.6287 23.6706 20.6287ZM23.6706 37.1036C18.9053 37.1036 15.9793 35.8618 15.9793 34.971V33.1498C17.3896 34.222 20.6025 34.7894 23.6706 34.7894C25.3322 34.7894 26.9646 34.6226 28.3324 34.3285C28.5737 35.0552 28.9068 35.74 29.3257 36.364C27.8502 36.8351 25.8282 37.1037 23.6706 37.1037V37.1036ZM36.3294 39.371C32.0879 39.371 28.6373 35.9204 28.6373 31.679C28.6373 27.4375 32.0879 23.9869 36.3294 23.9869C40.5708 23.9869 44.0214 27.4375 44.0214 31.679C44.0214 35.9205 40.5708 39.371 36.3294 39.371Z" fill="white"/>
<path d="M36.3289 24.4922C32.3668 24.4922 29.1436 27.7155 29.1436 31.6775C29.1436 35.6397 32.3668 38.8629 36.3289 38.8629C40.291 38.8629 43.5143 35.6396 43.5143 31.6775C43.5143 27.7151 40.291 24.4922 36.3289 24.4922ZM36.3289 38.1245C32.7738 38.1245 29.8816 35.232 29.8816 31.6772C29.8816 28.1221 32.7742 25.2299 36.3289 25.2299C39.884 25.2299 42.7762 28.1224 42.7762 31.6772C42.7765 35.2323 39.884 38.1245 36.3289 38.1245Z" fill="white"/>
<path d="M36.6988 31.3401V28.1726C36.7642 28.1884 36.8298 28.2012 36.8936 28.2253C37.2918 28.3759 37.6073 28.6726 37.7825 29.0602C37.866 29.2455 38.0843 29.3293 38.2704 29.2447C38.4563 29.1611 38.5388 28.9423 38.455 28.7567C38.121 28.0167 37.4461 27.5373 36.6991 27.4163V26.5155C36.6991 26.3115 36.5342 26.1465 36.3301 26.1465C36.126 26.1465 35.961 26.3115 35.961 26.5155V27.4229C35.762 27.4548 35.5638 27.5035 35.3715 27.5903C34.2001 28.1184 33.6765 29.5017 34.2052 30.6738C34.53 31.3937 35.1966 31.8916 35.961 32.0148V35.1823C35.8956 35.1665 35.83 35.1536 35.7663 35.1295C35.368 34.979 35.0525 34.6823 34.8774 34.2947C34.7935 34.1089 34.5747 34.0248 34.3894 34.1102C34.2035 34.1938 34.121 34.4126 34.2049 34.5982C34.5388 35.3382 35.2138 35.817 35.9607 35.9381V36.8391C35.9607 37.0431 36.1257 37.2081 36.3297 37.2081C36.5338 37.2081 36.6988 37.0431 36.6988 36.8391V35.9322C36.8978 35.9003 37.096 35.851 37.2883 35.7643C38.4597 35.2361 38.9834 33.8528 38.4547 32.6808C38.1301 31.9612 37.4635 31.4633 36.6988 31.3401V31.3401ZM34.8774 30.3706C34.5164 29.57 34.8742 28.6243 35.6747 28.2631C35.7677 28.221 35.8635 28.1897 35.9608 28.1664V31.2547C35.4889 31.1411 35.0825 30.8248 34.8774 30.3706L34.8774 30.3706ZM36.9849 35.092C36.892 35.134 36.7961 35.1656 36.6989 35.1889V32.1004C37.1708 32.214 37.5773 32.5303 37.7825 32.9845C38.1435 33.7851 37.7857 34.7307 36.9849 35.092L36.9849 35.092Z" fill="white"/>
</svg>
