<svg width="178" height="178" viewBox="0 0 178 178" fill="none" xmlns="http://www.w3.org/2000/svg">
<circle cx="89" cy="89" r="87.5" fill="#F2FAFF" stroke="#AAD4EC" stroke-width="3"/>
<path d="M122.603 91.0659V82.4484C122.603 82.0793 122.356 81.833 121.987 81.833H101.675C101.306 81.833 101.06 82.0793 101.06 82.4484V91.0659C101.06 91.4351 101.306 91.6814 101.675 91.6814H121.987C122.356 91.6814 122.603 91.435 122.603 91.0659ZM106.845 89.2195C105.49 89.2195 104.382 88.1115 104.382 86.7571C104.382 85.4027 105.49 84.2947 106.845 84.2947C108.199 84.2947 109.307 85.4027 109.307 86.7571C109.307 88.1115 108.199 89.2195 106.845 89.2195Z" fill="#0F87CB"/>
<path d="M108.139 49.2091H62.588C58.8948 49.2091 55.5088 52.2252 55.5088 55.9802V63.6748C55.5088 63.7976 55.6934 63.8594 55.6934 63.9828C55.6934 65.7063 57.2323 67.0607 58.9557 67.0607H109.431C111.154 67.0607 112.201 68.415 112.201 70.1385V78.1406H119.587L119.588 66.4446C119.588 63.3668 117.741 60.7198 114.663 59.9197V55.9801C114.602 52.2251 111.893 49.209 108.139 49.209L108.139 49.2091ZM110.908 59.6734H62.5877C60.8642 59.6734 59.2024 58.3191 59.2024 56.5956V55.9801C59.2024 54.2567 60.9258 52.9023 62.5877 52.9023H108.138C109.862 52.9023 110.908 54.2566 110.908 55.9801L110.908 59.6734Z" fill="#0F87CB"/>
<path d="M86.6553 99.6841C78.8379 99.6841 72.4976 106.024 72.4976 113.842C72.4976 121.659 78.8378 128 86.6553 128C94.4727 128 100.813 121.659 100.813 113.842C100.813 106.024 94.4729 99.6841 86.6553 99.6841ZM94.5957 115.688H88.1325V121.844C88.1325 122.828 87.2708 123.69 86.2862 123.69C85.3016 123.69 84.4398 122.89 84.4398 121.844V115.688H78.6539C77.6693 115.688 76.8075 114.826 76.8075 113.842C76.8075 112.857 77.6076 111.995 78.6539 111.995H84.4391V105.84C84.4391 104.855 85.3009 103.993 86.2855 103.993C87.2701 103.993 88.1319 104.793 88.1319 105.84V111.995H94.595C95.5796 111.995 96.4414 112.857 96.4414 113.842C96.4427 114.826 95.642 115.688 94.5957 115.688Z" fill="#0F87CB"/>
<path d="M58.7714 105.225C57.6633 105.225 56.7398 103.748 55.509 103.317V104.671C55.509 107.749 58.3407 111.381 61.3566 111.381H68.9278C69.2358 108.918 69.9124 107.072 70.9593 105.225H58.9566H58.7713L58.7714 105.225Z" fill="#0F87CB"/>
<path d="M114.293 111.378C117.371 111.378 119.525 108.916 119.525 105.9V95.374H112.138V102.206C112.138 103.93 111.092 105.222 109.369 105.222L102.29 105.223C103.336 107.069 104.013 108.916 104.322 111.379L114.293 111.378Z" fill="#0F87CB"/>
<path d="M108.446 95.375H101.921C99.5208 95.375 97.3664 93.4669 97.3664 91.0664V82.51C97.3664 80.1092 99.5208 78.1394 101.921 78.1394H108.693V70.7529L64.3732 70.7536H58.7719C57.6638 70.7536 56.7403 70.4455 55.5095 70.0146V97.0365C55.5095 97.1593 55.6941 97.2211 55.6941 97.3446C55.6941 99.068 57.233 101.591 58.9564 101.591H73.7296C76.992 98.5136 81.547 96.0519 86.6558 96.0519C91.7645 96.0519 96.3195 98.5143 99.5819 101.591H108.446L108.446 95.375Z" fill="#0F87CB"/>
</svg>
