<svg width="178" height="178" viewBox="0 0 178 178" fill="none" xmlns="http://www.w3.org/2000/svg">
<circle cx="89" cy="89" r="87.5" fill="#FCF3FE" stroke="#EB9DF8" stroke-width="3"/>
<path d="M83.4294 92.0359H63.1449C62.4723 92.0359 61.8278 92.3036 61.3519 92.7788L54.4878 99.6428H76.5662L84.0488 92.1603C83.8453 92.108 83.6499 92.0358 83.4304 92.0358L83.4294 92.0359Z" fill="#B10FCB"/>
<path d="M53.0018 122.464C53.0018 123.865 54.1369 125 55.5377 125H75.8222V102.178H53.0002L53.0018 122.464Z" fill="#B10FCB"/>
<path d="M84.0478 54.1252C83.8444 54.073 83.6489 54 83.4294 54H63.1449C62.4723 54 61.8278 54.2677 61.3519 54.7429L54.4878 61.607H76.5662L84.0478 54.1252Z" fill="#B10FCB"/>
<path d="M55.5375 86.9636H75.822V64.1416H53V84.4261C53 85.8276 54.1358 86.962 55.5359 86.962L55.5375 86.9636Z" fill="#B10FCB"/>
<path d="M118.81 70.56C118.212 65.5322 113.973 61.6075 108.788 61.6075H101.181C96.4436 61.6075 92.486 64.8851 91.3769 69.283C91.2604 69.2669 91.158 69.2147 91.0375 69.2147H85.9662V56.5363C85.9662 56.3168 85.8939 56.1213 85.8417 55.9178L78.359 63.4006V85.4794L85.2232 78.6152C85.6984 78.1394 85.9661 77.4955 85.9661 76.8221V74.2861H91.0374C91.1572 74.2861 91.2603 74.2339 91.3761 74.2179C92.4858 78.6165 96.4433 81.8934 101.181 81.8934H103.717V97.1078H101.181C96.4435 97.1078 92.4859 100.385 91.3768 104.783C91.2603 104.767 91.1579 104.715 91.0374 104.715H85.9661V94.5719C85.9661 94.3524 85.8938 94.157 85.8416 93.9535L78.3589 101.437V123.516L85.2231 116.652C85.6983 116.176 85.966 115.532 85.966 114.858V109.787H91.0373C91.1571 109.787 91.2602 109.735 91.376 109.719C92.4857 114.117 96.4432 117.394 101.181 117.394H108.788C113.973 117.394 118.213 113.469 118.81 108.441C121.892 106.7 124.001 103.431 124.001 99.644V79.3591C124.001 75.5721 121.892 72.3033 118.81 70.5611L118.81 70.56ZM101.181 76.8219C98.3838 76.8219 96.1094 74.5464 96.1094 71.7506C96.1094 68.9549 98.3836 66.6793 101.181 66.6793H108.788C110.684 66.6793 112.32 67.7375 113.19 69.2828C108.781 69.5766 105.155 72.6707 104.076 76.8218L101.181 76.8219ZM113.112 74.3617C112.347 75.6253 111.054 76.5195 109.534 76.7464C110.3 75.4834 111.592 74.5892 113.112 74.3617ZM108.788 112.322H101.181C98.384 112.322 96.1096 110.046 96.1096 107.251C96.1096 104.455 98.3838 102.179 101.181 102.179H104.077C105.156 106.33 108.781 109.425 113.191 109.719C112.321 111.264 110.684 112.322 108.788 112.322V112.322ZM109.534 102.254C111.054 102.481 112.347 103.375 113.112 104.639C111.592 104.412 110.3 103.518 109.534 102.254ZM118.931 99.6435C118.931 100.822 118.51 101.894 117.834 102.756C116.169 99.4227 112.759 97.1075 108.788 97.1075V81.8931C112.759 81.8931 116.17 79.5779 117.834 76.2456C118.51 77.1076 118.931 78.1791 118.931 79.3578V99.6435Z" fill="#B10FCB"/>
</svg>
