<svg width="75" height="75" viewBox="0 0 75 75" fill="none" xmlns="http://www.w3.org/2000/svg">
<circle cx="37.5" cy="37.5" r="37.5" fill="#1E57EE"/>
<path d="M47.0925 51.5566V24.4426C47.0833 23.8955 46.857 23.374 46.4634 22.9935C46.0702 22.6129 45.5415 22.4041 44.9941 22.4134H31.0061C30.459 22.4041 29.9303 22.6129 29.5368 22.9935C29.1435 23.374 28.9173 23.8954 28.908 24.4426V51.5566C28.9173 52.1042 29.1435 52.6253 29.5368 53.0062C29.9303 53.3867 30.459 53.5952 31.0061 53.5862H44.9941C45.5416 53.5952 46.0702 53.3867 46.4634 53.0062C46.857 52.6253 47.0833 52.1042 47.0925 51.5566ZM45.7935 50.9886H30.2074V25.0111H45.7935V50.9886Z" fill="white"/>
<path d="M49.0406 37.3506H54.2362V38.6496H49.0406V37.3506Z" fill="white"/>
<path d="M56.1841 37.0254C56.722 37.0254 57.1581 37.5633 57.1581 37.9994C57.1581 38.5373 56.722 38.9734 56.1841 38.9734C55.6462 38.9734 55.2101 38.4355 55.2101 37.9994C55.2101 37.4615 55.6462 37.0254 56.1841 37.0254Z" fill="white"/>
<path d="M55.2 43.7319L56.1188 42.8138L54.7413 41.4364C54.6193 41.3143 54.454 41.2461 54.2816 41.2461H50.339V42.5451H54.0128L55.2 43.7319Z" fill="white"/>
<path d="M56.3489 45.339C56.7312 45.7082 57.3386 45.7024 57.7144 45.3267C58.0898 44.9506 58.095 44.3431 57.7257 43.9609C57.3452 43.5807 56.7281 43.5807 56.3479 43.9612C55.9674 44.3418 55.9677 44.9589 56.3483 45.339L56.3489 45.339Z" fill="white"/>
<path d="M54.0134 33.4538H50.3397V34.7528H54.2822C54.4543 34.7528 54.6196 34.6842 54.7413 34.5625L56.1194 33.1851L55.201 32.2666L54.0134 33.4538Z" fill="white"/>
<path d="M56.3489 30.6606C55.9797 31.0426 55.9848 31.6504 56.3605 32.0262C56.7363 32.402 57.3441 32.4071 57.7261 32.0378C58.0956 31.6559 58.0905 31.0485 57.7151 30.6723C57.3394 30.2966 56.7319 30.2907 56.3493 30.66L56.3489 30.6606Z" fill="white"/>
<path d="M21.7645 37.3506H26.96V38.6496H21.7645V37.3506Z" fill="white"/>
<path d="M19.8159 37.0254C20.3538 37.0254 20.7899 37.5633 20.7899 37.9994C20.7899 38.5373 20.3539 38.9734 19.8159 38.9734C19.278 38.9734 18.8419 38.4355 18.8419 37.9994C18.8419 37.4615 19.278 37.0254 19.8159 37.0254Z" fill="white"/>
<path d="M20.8 32.2666L19.8812 33.1851L21.2586 34.5625C21.3803 34.6842 21.5459 34.7528 21.7184 34.7528H25.6609V33.4538H21.9872L20.8 32.2666Z" fill="white"/>
<path d="M18.274 32.0374C18.6579 32.3912 19.2531 32.3796 19.6226 32.0104C19.9922 31.6411 20.0049 31.0464 19.6514 30.662C19.2692 30.2928 18.6614 30.2983 18.2859 30.6744C17.9102 31.0505 17.9054 31.658 18.2746 32.0399L18.274 32.0374Z" fill="white"/>
<path d="M21.9872 42.5463H25.6609V41.2473H21.7184C21.5459 41.2473 21.381 41.3159 21.259 41.4376L19.8812 42.8151L20.7996 43.7335L21.9872 42.5463Z" fill="white"/>
<path d="M19.651 45.3383C20.0202 44.956 20.0151 44.3486 19.6393 43.9728C19.2632 43.597 18.6557 43.5919 18.2735 43.9608C17.9043 44.343 17.9098 44.9508 18.2855 45.3266C18.6613 45.7023 19.2688 45.7074 19.6511 45.3382L19.651 45.3383Z" fill="white"/>
<path d="M38 43.1945C39.3782 43.1945 40.6995 42.647 41.6738 41.6727C42.6481 40.6983 43.1956 39.3771 43.1956 37.9989C43.1956 36.6211 42.6481 35.2995 41.6738 34.3252C40.6994 33.3509 39.3782 32.8037 38 32.8037C36.6222 32.8037 35.3006 33.3509 34.3263 34.3252C33.352 35.2995 32.8048 36.6211 32.8048 37.9989C32.8048 39.3771 33.352 40.6984 34.3263 41.6727C35.3006 42.647 36.6222 43.1945 38 43.1945ZM38.3247 38.6486H37.6754C37.1344 38.6479 36.6294 38.3781 36.3284 37.9286C36.027 37.4795 35.9694 36.9098 36.1748 36.4093C36.3798 35.9087 36.8207 35.5433 37.3507 35.4346V34.7521H38.6497V35.4346C39.0161 35.5094 39.3456 35.7085 39.5825 35.9982C39.8191 36.2883 39.9483 36.6506 39.9483 37.025H38.6497C38.6497 36.9389 38.6154 36.8563 38.5544 36.7953C38.4937 36.7346 38.4111 36.7003 38.325 36.7003H37.6753C37.496 36.7003 37.3507 36.8457 37.3507 37.025C37.3507 37.2043 37.496 37.3497 37.6753 37.3497H38.325C38.8656 37.3503 39.371 37.6201 39.672 38.0693C39.973 38.5187 40.0306 39.0885 39.8256 39.589C39.6202 40.0895 39.1794 40.455 38.6497 40.5636V41.2462H37.3507V40.5636C36.9842 40.4889 36.6548 40.2897 36.4179 39.9997C36.1813 39.71 36.0521 39.3473 36.0517 38.9733H37.3507C37.3507 39.0593 37.385 39.1419 37.4457 39.203C37.5067 39.2636 37.5893 39.2979 37.6754 39.2979H38.3251C38.5044 39.2979 38.6497 39.1526 38.6497 38.9733C38.6497 38.7939 38.5044 38.6486 38.3251 38.6486L38.3247 38.6486Z" fill="white"/>
</svg>
