<svg width="79" height="78" viewBox="0 0 79 78" fill="none" xmlns="http://www.w3.org/2000/svg">
<circle cx="39.4" cy="39" r="39" fill="url(#paint0_linear_1_2294)"/>
<path d="M35.2078 25.3499L34.2288 25.4677C34.2288 25.4677 29.8363 25.9478 26.6284 28.5239H26.5908L26.5507 28.5615C25.8311 29.2234 25.5177 30.037 25.0226 31.2266C24.4389 32.6579 23.942 34.123 23.5346 35.6141C22.6044 38.9774 21.8498 43.0515 21.8498 46.7784V47.0918L22.0065 47.4052C23.1673 49.4422 25.2282 50.7397 27.1386 51.636C29.0478 52.5323 30.6988 53.0074 31.8395 53.0463L32.5841 53.0851L32.9752 52.4195L34.3466 49.9901C35.8008 50.3185 37.4756 50.5391 39.3998 50.5391C41.324 50.5391 42.9988 50.3185 44.4529 49.9901L45.8243 52.4195L46.2167 53.0851L46.9601 53.0463C48.1008 53.0074 49.7518 52.5323 51.661 51.636C53.5714 50.7397 55.6323 49.4422 56.7931 47.4052L56.9498 47.0918V46.7784C56.9498 43.0515 56.1951 38.9774 55.265 35.6141C54.8576 34.123 54.3607 32.6579 53.777 31.2266C53.2818 30.0357 52.9684 29.2234 52.2489 28.5628L52.21 28.5226H52.1699C48.9645 25.9478 44.5708 25.4677 44.5708 25.4677L43.5917 25.3499L43.2382 26.2512C43.2382 26.2512 42.8759 27.1663 42.6516 28.2105C41.5739 28.0618 40.4877 27.9831 39.3998 27.9748C38.7291 27.9748 37.5696 28.0187 36.148 28.2105C35.9998 27.544 35.8033 26.8892 35.5601 26.2512L35.2078 25.3499ZM33.4842 28.2105C33.5381 28.386 33.592 28.5377 33.6409 28.6806C32.02 29.0817 30.2913 29.6935 28.7056 30.6775L30.0369 32.7936C33.2886 30.7753 37.9594 30.482 39.3998 30.482C40.8389 30.482 45.511 30.7753 48.7627 32.7936L50.094 30.6775C48.5082 29.6935 46.7796 29.0817 45.1587 28.6793C45.2076 28.5377 45.2615 28.386 45.3154 28.2092C46.485 28.4449 48.7188 28.984 50.5641 30.4431C50.5541 30.4481 51.0342 31.1727 51.4654 32.2056C51.9067 33.2687 52.3956 34.6839 52.8368 36.2797C53.6842 39.3397 54.3499 43.0666 54.4038 46.3472C53.614 47.5519 52.1511 48.6387 50.603 49.3645C49.632 49.8233 48.6049 50.1521 47.548 50.3423L46.9212 49.2855C47.2935 49.1477 47.6608 48.9972 47.9792 48.8543C49.9085 48.0069 50.9565 47.0918 50.9565 47.0918L49.3105 45.2114C49.3105 45.2114 48.606 45.8583 46.9601 46.5828C45.3166 47.3074 42.8032 48.032 39.3998 48.032C35.9963 48.032 33.4842 47.3074 31.8395 46.5828C30.1936 45.8583 29.4891 45.2114 29.4891 45.2114L27.8431 47.0918C27.8431 47.0918 28.8911 48.0069 30.8203 48.8543C31.1388 48.9972 31.5061 49.1489 31.8784 49.2855L31.2516 50.3436C30.1942 50.1526 29.1666 49.823 28.1954 49.3633C26.6485 48.6387 25.1843 47.5519 24.397 46.3472C24.4497 43.0666 25.1153 39.3397 25.964 36.2797C26.339 34.8956 26.7966 33.5351 27.3342 32.2056C27.7654 31.1727 28.2455 30.4481 28.2355 30.4431C30.0807 28.984 32.3146 28.4449 33.4842 28.2105ZM35.0123 36.7498C34.0433 36.7498 33.1858 37.3027 32.6618 38.0034C32.1379 38.7041 31.8784 39.5654 31.8784 40.5105C31.8784 41.4557 32.1379 42.3169 32.6618 43.0177C33.1858 43.7184 34.0433 44.2713 35.0123 44.2713C35.9813 44.2713 36.8387 43.7184 37.3627 43.0177C37.8867 42.3169 38.1462 41.4557 38.1462 40.5105C38.1462 39.5654 37.8867 38.7041 37.3627 38.0034C36.8387 37.3027 35.9813 36.7498 35.0123 36.7498ZM43.7873 36.7498C42.8183 36.7498 41.9608 37.3027 41.4368 38.0034C40.9129 38.7041 40.6534 39.5654 40.6534 40.5105C40.6534 41.4557 40.9129 42.3169 41.4368 43.0177C41.9608 43.7184 42.8183 44.2713 43.7873 44.2713C44.7563 44.2713 45.6137 43.7184 46.1377 43.0177C46.6617 42.3169 46.9212 41.4557 46.9212 40.5105C46.9212 39.5654 46.6617 38.7041 46.1377 38.0034C45.6137 37.3027 44.7563 36.7498 43.7873 36.7498ZM35.0123 39.257C35.0812 39.257 35.169 39.282 35.3257 39.4926C35.4824 39.702 35.6391 40.0693 35.6391 40.5105C35.6391 40.9518 35.4824 41.3191 35.3257 41.5297C35.169 41.739 35.0812 41.7641 35.0123 41.7641C34.9433 41.7641 34.8556 41.739 34.6989 41.5284C34.4916 41.2298 34.3821 40.8741 34.3855 40.5105C34.3855 40.0693 34.5422 39.702 34.6989 39.4914C34.8556 39.282 34.9433 39.257 35.0123 39.257ZM43.7873 39.257C43.8562 39.257 43.944 39.282 44.1007 39.4926C44.2574 39.702 44.4141 40.0693 44.4141 40.5105C44.4141 40.9518 44.2574 41.3191 44.1007 41.5297C43.944 41.739 43.8562 41.7641 43.7873 41.7641C43.7183 41.7641 43.6306 41.739 43.4739 41.5284C43.2666 41.2298 43.1571 40.8741 43.1605 40.5105C43.1605 40.0693 43.3172 39.702 43.4739 39.4914C43.6306 39.282 43.7183 39.257 43.7873 39.257Z" fill="white"/>
<defs>
<linearGradient id="paint0_linear_1_2294" x1="-5.58414" y1="78" x2="85.6222" y2="11.5556" gradientUnits="userSpaceOnUse">
<stop stop-color="#1E5CEF"/>
<stop offset="1" stop-color="#1DD6FF"/>
</linearGradient>
</defs>
</svg>
