<svg width="178" height="178" viewBox="0 0 178 178" fill="none" xmlns="http://www.w3.org/2000/svg">
<circle cx="89" cy="89" r="87.5" fill="#FDF4E8" stroke="#FDE1B6" stroke-width="3"/>
<path d="M81.9004 95.4448V109.94" stroke="#E99312" stroke-width="2.39379" stroke-miterlimit="10" stroke-linecap="round" stroke-linejoin="round"/>
<path d="M87.9193 103.923L81.9024 109.94L75.8835 103.921" stroke="#E99312" stroke-width="2.39379" stroke-miterlimit="10" stroke-linecap="round" stroke-linejoin="round"/>
<path d="M120.114 63.8008L62.1931 63.7949C61.0887 63.7949 60.1937 62.8992 60.1937 61.7934C60.1937 60.6897 61.0888 59.7953 62.1931 59.7953L112.553 59.7874C113.875 59.7874 114.946 58.7153 114.946 57.3937C114.946 56.0708 113.875 55 112.553 55H60.5857C57.5063 55 55 57.5063 55 60.5857V110.955C55 112.549 56.2926 113.843 57.8887 113.843H64.0281C67.7718 119.726 74.3454 123.641 81.8188 123.641C89.2923 123.641 95.8666 119.727 99.6096 113.843H120.111C121.707 113.843 123 112.55 123 110.955V66.6901C123 65.0947 121.707 63.8008 120.111 63.8008L120.114 63.8008ZM81.8204 119.651C72.3981 119.651 64.7339 111.987 64.7339 102.567C64.7339 101.857 64.7787 101.142 64.8656 100.441C65.9219 91.9118 73.2116 85.4796 81.8206 85.4796C84.0261 85.4796 86.1703 85.8929 88.1955 86.7057C94.7027 89.3239 98.9077 95.548 98.9077 102.566C98.9077 111.987 91.2428 119.653 81.8212 119.653L81.8204 119.651ZM118.585 83.3186H102.938C99.9797 83.3186 97.5821 80.9215 97.5821 77.9638C97.5821 75.0042 99.9797 72.6071 102.938 72.6071H118.584L118.585 83.3186ZM101.171 77.9638C101.171 79.2308 102.198 80.2595 103.467 80.2595C104.736 80.2595 105.763 79.2308 105.763 77.9638C105.763 76.6949 104.736 75.6682 103.467 75.6682C102.198 75.6682 101.171 76.6949 101.171 77.9638Z" fill="#E99312"/>
</svg>
