<svg width="24" height="25" viewBox="0 0 24 25" fill="none" xmlns="http://www.w3.org/2000/svg">
<path d="M19.4115 7.15619C19.0696 4.75659 17.5871 2.67091 15.4333 1.55948C13.2793 0.447946 10.7205 0.447946 8.56671 1.55948C6.41269 2.67102 4.93021 4.75664 4.58831 7.15619C2.86892 7.23834 1.324 8.23152 0.535388 9.76159C-0.253278 11.2919 -0.165637 13.1264 0.765316 14.5744C1.69626 16.0224 3.32882 16.8639 5.04821 16.7816H8.7916V11.4342C8.7916 10.288 9.40303 9.22875 10.3958 8.65558C11.3885 8.08225 12.6117 8.08225 13.6044 8.65558C14.5971 9.22869 15.2086 10.2879 15.2086 11.4342V16.7818H18.9518V16.7816C20.6714 16.864 22.304 16.0224 23.2349 14.5744C24.1656 13.1264 24.2532 11.2919 23.4648 9.7616C22.6761 8.23153 21.1312 7.23831 19.4116 7.15619L19.4115 7.15619Z" fill="white"/>
<path d="M15.9678 19.2306C15.7668 19.0282 15.4935 18.9143 15.2083 18.9143C14.9231 18.9143 14.6498 19.0282 14.4489 19.2306L13.0693 20.6209V11.434C13.0693 11.0519 12.8654 10.6987 12.5345 10.5077C12.2036 10.3168 11.796 10.3168 11.4651 10.5077C11.1342 10.6987 10.9303 11.0518 10.9303 11.434V20.6209L9.55078 19.2306L9.55056 19.2304C9.27935 18.9592 8.88385 18.8533 8.51333 18.9526C8.14283 19.0519 7.85318 19.3413 7.75388 19.7118C7.65459 20.0826 7.76066 20.4778 8.03187 20.7493L11.2405 23.9579V23.9577C11.4412 24.1603 11.7145 24.274 11.9997 24.274C12.2849 24.274 12.5582 24.1603 12.7592 23.9577L15.9677 20.7491V20.7493C16.1702 20.5484 16.2841 20.275 16.2841 19.9898C16.2841 19.7046 16.1701 19.4313 15.9677 19.2304L15.9678 19.2306Z" fill="white"/>
</svg>
