<svg width="20" height="18" viewBox="0 0 20 18" fill="none" xmlns="http://www.w3.org/2000/svg">
<path d="M3.33333 0.666748C2.44928 0.666748 1.60143 1.01794 0.976311 1.64306C0.351189 2.26818 0 3.11603 0 4.00008V4.33508L10 9.72008L20 4.33675V4.00008C20 3.11603 19.6488 2.26818 19.0237 1.64306C18.3986 1.01794 17.5507 0.666748 16.6667 0.666748H3.33333ZM20 6.22841L10.395 11.4001C10.2736 11.4654 10.1379 11.4996 10 11.4996C9.86212 11.4996 9.7264 11.4654 9.605 11.4001L0 6.22841V14.0001C0 14.8841 0.351189 15.732 0.976311 16.3571C1.60143 16.9822 2.44928 17.3334 3.33333 17.3334H16.6667C17.5507 17.3334 18.3986 16.9822 19.0237 16.3571C19.6488 15.732 20 14.8841 20 14.0001V6.22841Z" fill="#787E8B"/>
</svg>
