<svg width="60" height="60" viewBox="0 0 60 60" fill="none" xmlns="http://www.w3.org/2000/svg">
<circle cx="30" cy="30" r="30" fill="#1E57EE"/>
<path d="M39.7499 41.341C40.6119 41.341 41.4384 40.9993 42.048 40.3914C42.6576 39.7837 42.9999 38.9592 42.9999 38.0995V28.8385C42.9999 27.807 42.5891 26.8178 41.8576 26.0883C41.1262 25.3588 40.1343 24.9492 39.1 24.9492H21.4488C20.9698 24.9495 20.5095 24.7645 20.1649 24.4332C19.8199 24.102 19.6176 23.6499 19.6002 23.1728C19.6173 22.6635 19.8303 22.1802 20.1948 21.8228C20.5593 21.4655 21.0474 21.2614 21.5585 21.2531H39.1001C39.4448 21.2531 39.7755 21.3899 40.0192 21.6329C40.2632 21.876 40.4 22.2058 40.4 22.5495V22.9873C40.4 23.4505 40.6479 23.8786 41.05 24.1102C41.4522 24.3418 41.9479 24.3418 42.35 24.1102C42.7525 23.8786 43 23.4505 43 22.9873V22.5495C43 21.518 42.5892 20.5288 41.8578 19.7993C41.1264 19.0698 40.1345 18.6602 39.1002 18.6602H21.4489C20.2698 18.6626 19.1394 19.1306 18.3055 19.9621C17.4717 20.7937 17.0024 21.9207 17 23.0971V36.1543C17 37.53 17.548 38.849 18.5231 39.8216C19.4983 40.7941 20.8209 41.3406 22.2003 41.3406L39.7499 41.341ZM40.3999 33.9913H35.9092C35.552 33.9868 35.2637 33.6989 35.2588 33.343V32.5851C35.2588 32.2271 35.5499 31.9368 35.9092 31.9368H40.4086L40.3999 33.9913ZM19.5999 36.1547V27.1382C20.1789 27.4066 20.8101 27.5445 21.4486 27.5424H39.0998C39.4444 27.5424 39.7752 27.6792 40.0188 27.9222C40.2629 28.1653 40.3997 28.4951 40.3997 28.8388V29.3357H35.9089C35.0459 29.3377 34.2194 29.6811 33.6101 30.2905C33.0009 30.8995 32.6586 31.7248 32.6586 32.5851V33.3681C32.6677 34.2229 33.0138 35.0396 33.622 35.6412C34.2302 36.2433 35.0518 36.5822 35.9089 36.5842H40.4083V38.0998L40.408 38.0994C40.408 38.4574 40.1169 38.7477 39.758 38.7477H22.1995C21.5098 38.7477 20.8487 38.4748 20.3609 37.9883C19.8732 37.5019 19.5995 36.8425 19.5995 36.1547L19.5999 36.1547Z" fill="white"/>
</svg>
