<svg width="190" height="58" viewBox="0 0 190 58" fill="none" xmlns="http://www.w3.org/2000/svg">
<path d="M182.656 57.7808H7.34446C3.28792 57.7808 0 54.492 0 50.4355V7.34446C0 3.28792 3.28792 0 7.34446 0H182.656C186.711 0 190 3.28792 190 7.34446V50.4363C189.999 54.492 186.711 57.7808 182.656 57.7808Z" fill="black"/>
<path d="M59.0855 16.5435H53.8485L52.7003 19.0849H51.9907L56.1441 10.0559H56.8017L60.9551 19.0849H60.2456L59.0855 16.5435ZM58.8406 15.9891L56.467 10.7781L54.1068 15.9891H58.8406Z" fill="white"/>
<path d="M67.4619 12.3489L64.4173 19.0822H63.7597L60.7285 12.3489H61.4121L64.0952 18.3727L66.8043 12.3489H67.4619Z" fill="white"/>
<path d="M72.8482 12.936C73.2955 13.362 73.5192 13.9873 73.5192 14.8127V19.0826H72.9002V17.8832C72.6852 18.2786 72.371 18.5865 71.9583 18.8054C71.5457 19.0244 71.0511 19.1346 70.4746 19.1346C69.7265 19.1346 69.135 18.9582 68.7011 18.6054C68.2664 18.2526 68.0498 17.7887 68.0498 17.2123C68.0498 16.6531 68.2499 16.1995 68.6499 15.8514C69.05 15.5033 69.6887 15.3293 70.5652 15.3293H72.8742V14.7875C72.8742 14.1598 72.7041 13.6826 72.3647 13.3557C72.0253 13.0289 71.5283 12.8659 70.8747 12.8659C70.4274 12.8659 69.9997 12.9431 69.591 13.0982C69.1823 13.2534 68.8366 13.4597 68.5523 13.7172L68.2302 13.2526C68.5657 12.9517 68.9697 12.7171 69.443 12.5493C69.9155 12.3816 70.4101 12.2981 70.9267 12.2981C71.7607 12.2973 72.4009 12.5099 72.8482 12.936ZM71.9906 18.2179C72.382 17.9596 72.6765 17.5855 72.8742 17.0957V15.8317H70.5778C69.9155 15.8317 69.4359 15.9522 69.1398 16.1932C68.8429 16.4342 68.6948 16.7649 68.6948 17.1863C68.6948 17.6249 68.8578 17.9714 69.1847 18.225C69.5115 18.4786 69.9714 18.6054 70.5652 18.6054C71.1243 18.6046 71.5992 18.4762 71.9906 18.2179Z" fill="white"/>
<path d="M76.1273 10.5635C76.0241 10.4651 75.9722 10.3422 75.9722 10.1957C75.9722 10.0492 76.0241 9.92481 76.1273 9.82165C76.2305 9.71848 76.3549 9.6665 76.5014 9.6665C76.6479 9.6665 76.7723 9.71612 76.8755 9.81456C76.9786 9.91379 77.0306 10.0359 77.0306 10.1823C77.0306 10.3288 76.9786 10.4532 76.8755 10.5564C76.7723 10.6596 76.6479 10.7115 76.5014 10.7115C76.3549 10.7115 76.2305 10.6627 76.1273 10.5635ZM76.1785 12.3504H76.8235V19.0837H76.1785V12.3504Z" fill="white"/>
<path d="M79.5439 9.51294H80.1889V19.0837H79.5439V9.51294Z" fill="white"/>
<path d="M87.106 12.936C87.5533 13.362 87.7769 13.9873 87.7769 14.8127V19.0826H87.1579V17.8832C86.9429 18.2786 86.6287 18.5865 86.216 18.8054C85.8034 19.0244 85.3088 19.1346 84.7324 19.1346C83.9842 19.1346 83.3928 18.9582 82.9588 18.6054C82.5241 18.2526 82.3076 17.7887 82.3076 17.2123C82.3076 16.6531 82.5076 16.1995 82.9077 15.8514C83.3077 15.5033 83.9464 15.3293 84.8229 15.3293H87.1319V14.7875C87.1319 14.1598 86.9618 13.6826 86.6224 13.3557C86.283 13.0289 85.7861 12.8659 85.1324 12.8659C84.6851 12.8659 84.2575 12.9431 83.8487 13.0982C83.44 13.2534 83.0943 13.4597 82.81 13.7172L82.4879 13.2526C82.8234 12.9517 83.2274 12.7171 83.7007 12.5493C84.1732 12.3816 84.6678 12.2981 85.1844 12.2981C86.0176 12.2973 86.6586 12.5099 87.106 12.936ZM86.2483 18.2179C86.6397 17.9596 86.9343 17.5855 87.1319 17.0957V15.8317H84.8355C84.1732 15.8317 83.6936 15.9522 83.3975 16.1932C83.1006 16.4342 82.9525 16.7649 82.9525 17.1863C82.9525 17.6249 83.1156 17.9714 83.4424 18.225C83.7692 18.4786 84.2291 18.6054 84.8229 18.6054C85.3813 18.6046 85.8569 18.4762 86.2483 18.2179Z" fill="white"/>
<path d="M95.5164 12.7316C96.0236 13.0198 96.4213 13.4238 96.7095 13.9443C96.9977 14.4649 97.1419 15.0555 97.1419 15.7179C97.1419 16.3802 96.9977 16.9692 96.7095 17.4851C96.4213 18.0009 96.0236 18.4057 95.5164 18.6978C95.0092 18.99 94.4414 19.1365 93.8138 19.1365C93.2121 19.1365 92.6679 18.9924 92.182 18.7042C91.6961 18.4159 91.3197 18.0143 91.0535 17.4984V19.0853H90.4345V9.51294H91.0795V13.8861C91.3457 13.3876 91.7197 12.9985 92.2017 12.719C92.6829 12.4394 93.2208 12.3 93.8138 12.3C94.4414 12.2992 95.0092 12.4433 95.5164 12.7316ZM95.1683 18.1938C95.581 17.9528 95.9054 17.6182 96.1425 17.1874C96.3787 16.7574 96.4969 16.2675 96.4969 15.7171C96.4969 15.1666 96.3787 14.6767 96.1425 14.2468C95.9062 13.8168 95.5818 13.4813 95.1683 13.2403C94.7557 12.9993 94.291 12.8788 93.7752 12.8788C93.2594 12.8788 92.7971 12.9993 92.3884 13.2403C91.9796 13.4813 91.6575 13.8168 91.4213 14.2468C91.185 14.6767 91.0669 15.1674 91.0669 15.7171C91.0669 16.2675 91.185 16.7574 91.4213 17.1874C91.6575 17.6174 91.9804 17.9528 92.3884 18.1938C92.7971 18.4348 93.2594 18.5553 93.7752 18.5553C94.291 18.5553 94.7557 18.4348 95.1683 18.1938Z" fill="white"/>
<path d="M99.1377 9.51294H99.7827V19.0837H99.1377V9.51294Z" fill="white"/>
<path d="M108.194 15.8709H102.403C102.42 16.3954 102.553 16.8624 102.803 17.2703C103.053 17.6791 103.39 17.9949 103.816 18.2185C104.242 18.4422 104.721 18.554 105.254 18.554C105.693 18.554 106.099 18.4745 106.473 18.3154C106.847 18.1563 107.159 17.9216 107.409 17.6121L107.783 18.0382C107.49 18.391 107.123 18.6619 106.679 18.8509C106.237 19.0399 105.757 19.1344 105.241 19.1344C104.57 19.1344 103.973 18.9879 103.448 18.6958C102.924 18.4036 102.512 17.9988 102.216 17.483C101.919 16.9671 101.771 16.3781 101.771 15.7158C101.771 15.0621 101.911 14.4754 102.19 13.9549C102.47 13.4343 102.855 13.0279 103.345 12.7358C103.835 12.4436 104.385 12.2971 104.996 12.2971C105.606 12.2971 106.154 12.4412 106.64 12.7295C107.126 13.0177 107.509 13.4193 107.788 13.9352C108.068 14.451 108.207 15.0361 108.207 15.6898L108.194 15.8709ZM103.719 13.1815C103.34 13.3926 103.037 13.6887 102.809 14.0714C102.582 14.4542 102.45 14.8865 102.416 15.3677H107.576C107.55 14.8865 107.421 14.4565 107.19 14.0777C106.957 13.6997 106.652 13.4028 106.274 13.1878C105.895 12.9728 105.47 12.8657 104.996 12.8657C104.523 12.8657 104.097 12.9712 103.719 13.1815Z" fill="white"/>
<path d="M114.429 18.6958C113.917 18.4036 113.515 17.9972 113.223 17.4767C112.931 16.9561 112.785 16.3694 112.785 15.7158C112.785 15.0621 112.931 14.4754 113.223 13.9549C113.515 13.4343 113.918 13.0279 114.429 12.7358C114.941 12.4436 115.514 12.2971 116.151 12.2971C116.788 12.2971 117.362 12.4436 117.874 12.7358C118.386 13.0279 118.787 13.4343 119.08 13.9549C119.372 14.4754 119.519 15.0621 119.519 15.7158C119.519 16.3694 119.372 16.9561 119.08 17.4767C118.788 17.9972 118.386 18.4036 117.874 18.6958C117.362 18.9879 116.788 19.1344 116.151 19.1344C115.515 19.1344 114.941 18.9887 114.429 18.6958ZM117.538 18.1925C117.946 17.9516 118.269 17.6169 118.505 17.1861C118.742 16.7561 118.86 16.2662 118.86 15.7158C118.86 15.1653 118.742 14.6754 118.505 14.2455C118.269 13.8155 117.946 13.48 117.538 13.239C117.129 12.998 116.667 12.8775 116.151 12.8775C115.636 12.8775 115.173 12.998 114.765 13.239C114.356 13.48 114.034 13.8155 113.797 14.2455C113.561 14.6754 113.443 15.1661 113.443 15.7158C113.443 16.2662 113.561 16.7561 113.797 17.1861C114.034 17.6161 114.357 17.9516 114.765 18.1925C115.173 18.4335 115.636 18.554 116.151 18.554C116.667 18.554 117.129 18.4335 117.538 18.1925Z" fill="white"/>
<path d="M126.804 13.0327C127.294 13.5225 127.539 14.2281 127.539 15.148V19.0824H126.894V15.1999C126.894 14.4431 126.703 13.8674 126.32 13.4713C125.938 13.076 125.402 12.8783 124.715 12.8783C123.923 12.8783 123.3 13.1146 122.844 13.5879C122.388 14.0612 122.161 14.6975 122.161 15.4968V19.0824H121.516V12.3491H122.135V13.8068C122.367 13.3343 122.713 12.9642 123.173 12.6972C123.633 12.431 124.177 12.2971 124.805 12.2971C125.647 12.2971 126.314 12.542 126.804 13.0327Z" fill="white"/>
<path d="M136.855 18.6568C136.691 18.8119 136.488 18.93 136.243 19.0111C135.998 19.093 135.742 19.134 135.476 19.134C134.89 19.134 134.439 18.9726 134.121 18.6505C133.803 18.3276 133.644 17.8787 133.644 17.3022V12.9039H132.406V12.3495H133.644V10.8792H134.289V12.3495H136.43V12.9039H134.289V17.2376C134.289 17.6763 134.394 18.0094 134.605 18.237C134.815 18.4646 135.127 18.5788 135.54 18.5788C135.961 18.5788 136.31 18.4544 136.585 18.2047L136.855 18.6568Z" fill="white"/>
<path d="M143.937 13.0348C144.427 13.5246 144.673 14.2302 144.673 15.15V19.0845H144.028V15.202C144.028 14.4452 143.836 13.8695 143.454 13.4734C143.071 13.0781 142.535 12.8804 141.848 12.8804C141.056 12.8804 140.433 13.1167 139.977 13.59C139.521 14.0633 139.294 14.6996 139.294 15.4989V19.0845H138.649V9.51294H139.294V13.7569C139.526 13.2923 139.87 12.934 140.326 12.6796C140.781 12.426 141.319 12.2992 141.938 12.2992C142.78 12.2992 143.447 12.5441 143.937 13.0348Z" fill="white"/>
<path d="M153.031 15.8709H147.24C147.257 16.3954 147.39 16.8624 147.64 17.2703C147.889 17.6791 148.226 17.9949 148.652 18.2185C149.079 18.4422 149.557 18.554 150.09 18.554C150.529 18.554 150.935 18.4745 151.31 18.3154C151.684 18.1563 151.996 17.9216 152.245 17.6121L152.619 18.0382C152.327 18.391 151.959 18.6619 151.517 18.8509C151.074 19.0399 150.594 19.1344 150.079 19.1344C149.408 19.1344 148.81 18.9879 148.285 18.6958C147.761 18.4036 147.35 17.9988 147.054 17.483C146.757 16.9671 146.609 16.3781 146.609 15.7158C146.609 15.0621 146.748 14.4754 147.028 13.9549C147.307 13.4343 147.692 13.0279 148.182 12.7358C148.672 12.4436 149.223 12.2971 149.833 12.2971C150.443 12.2971 150.991 12.4412 151.477 12.7295C151.963 13.0177 152.346 13.4193 152.626 13.9352C152.905 14.451 153.044 15.0361 153.044 15.6898L153.031 15.8709ZM148.556 13.1815C148.177 13.3926 147.874 13.6887 147.646 14.0714C147.418 14.4542 147.287 14.8865 147.252 15.3677H152.412C152.386 14.8865 152.257 14.4565 152.025 14.0777C151.793 13.6997 151.488 13.4028 151.11 13.1878C150.731 12.9728 150.305 12.8657 149.832 12.8657C149.36 12.8657 148.934 12.9712 148.556 13.1815Z" fill="white"/>
<path d="M62.2692 34.9015H64.9192V40.9119C64.1435 41.5293 63.2386 42.0034 62.2046 42.3334C61.1706 42.6634 60.1074 42.8287 59.0159 42.8287C57.4787 42.8287 56.0934 42.4948 54.8586 41.827C53.6229 41.1592 52.6535 40.2362 51.9502 39.0588C51.2462 37.8815 50.895 36.5529 50.895 35.0732C50.895 33.5942 51.247 32.2656 51.9502 31.0875C52.6535 29.9102 53.6269 28.9872 54.8696 28.3194C56.1115 27.6515 57.5086 27.3176 59.06 27.3176C60.324 27.3176 61.473 27.5263 62.507 27.9421C63.541 28.3587 64.4097 28.9691 65.1137 29.7731L63.3473 31.4962C62.1983 30.3472 60.8123 29.7731 59.19 29.7731C58.1268 29.7731 57.1826 29.996 56.3572 30.441C55.5311 30.8859 54.8846 31.5112 54.4183 32.3153C53.9513 33.1201 53.7182 34.0384 53.7182 35.0724C53.7182 36.0781 53.9513 36.9829 54.4183 37.787C54.8846 38.5918 55.5311 39.2234 56.3572 39.6826C57.1826 40.1425 58.1197 40.3716 59.1687 40.3716C60.3461 40.3716 61.3801 40.1133 62.2708 39.5959V34.9015H62.2692Z" fill="white"/>
<path d="M70.3645 42.011C69.4305 41.5085 68.7021 40.8084 68.1776 39.9107C67.6531 39.0129 67.3916 37.997 67.3916 36.8621C67.3916 35.7281 67.6539 34.7153 68.1776 33.8247C68.7013 32.934 69.4305 32.2378 70.3645 31.7353C71.2978 31.2329 72.3467 30.9817 73.5099 30.9817C74.6873 30.9817 75.7426 31.2329 76.6766 31.7353C77.6098 32.2386 78.339 32.9348 78.8635 33.8247C79.3872 34.7153 79.6495 35.7281 79.6495 36.8621C79.6495 37.997 79.3872 39.0129 78.8635 39.9107C78.339 40.8084 77.6106 41.5085 76.6766 42.011C75.7426 42.5142 74.6873 42.7646 73.5099 42.7646C72.3467 42.7646 71.2985 42.5134 70.3645 42.011ZM75.9662 39.4689C76.6128 38.8081 76.9357 37.9395 76.9357 36.8621C76.9357 35.7848 76.6128 34.9162 75.9662 34.2554C75.3197 33.5947 74.5014 33.2647 73.5107 33.2647C72.52 33.2647 71.7041 33.5955 71.0654 34.2554C70.426 34.9162 70.107 35.7848 70.107 36.8621C70.107 37.9395 70.4268 38.8081 71.0654 39.4689C71.7041 40.1296 72.5192 40.4596 73.5107 40.4596C74.5014 40.4596 75.3197 40.1296 75.9662 39.4689Z" fill="white"/>
<path d="M84.2615 42.011C83.3275 41.5085 82.599 40.8084 82.0745 39.9107C81.55 39.0129 81.2886 37.997 81.2886 36.8621C81.2886 35.7281 81.5508 34.7153 82.0745 33.8247C82.5982 32.934 83.3275 32.2378 84.2615 31.7353C85.1947 31.2329 86.2437 30.9817 87.4069 30.9817C88.5842 30.9817 89.6395 31.2329 90.5735 31.7353C91.5067 32.2386 92.236 32.9348 92.7605 33.8247C93.2842 34.7153 93.5464 35.7281 93.5464 36.8621C93.5464 37.997 93.2842 39.0129 92.7605 39.9107C92.236 40.8084 91.5075 41.5085 90.5735 42.011C89.6395 42.5142 88.5842 42.7646 87.4069 42.7646C86.2437 42.7646 85.1947 42.5134 84.2615 42.011ZM89.8624 39.4689C90.5089 38.8081 90.8318 37.9395 90.8318 36.8621C90.8318 35.7848 90.5089 34.9162 89.8624 34.2554C89.2158 33.5947 88.3976 33.2647 87.4069 33.2647C86.4162 33.2647 85.6003 33.5955 84.9616 34.2554C84.3221 34.9162 84.0032 35.7848 84.0032 36.8621C84.0032 37.9395 84.3229 38.8081 84.9616 39.4689C85.6003 40.1296 86.4154 40.4596 87.4069 40.4596C88.3976 40.4596 89.2166 40.1296 89.8624 39.4689Z" fill="white"/>
<path d="M107.551 31.1101V40.8691C107.551 44.9193 105.483 46.944 101.347 46.944C100.241 46.944 99.1919 46.8039 98.2012 46.5243C97.2105 46.2439 96.3915 45.8384 95.7449 45.3068L96.9514 43.2821C97.4539 43.6987 98.0894 44.0326 98.858 44.2838C99.6259 44.535 100.405 44.661 101.195 44.661C102.459 44.661 103.385 44.3736 103.975 43.7995C104.564 43.2246 104.857 42.3488 104.857 41.1715V40.5682C104.397 41.0715 103.838 41.4518 103.177 41.7102C102.516 41.9685 101.791 42.0976 101.001 42.0976C99.9094 42.0976 98.9218 41.8645 98.039 41.3975C97.1562 40.9313 96.4592 40.2737 95.9497 39.4263C95.4402 38.5789 95.185 37.6095 95.185 36.518C95.185 35.4265 95.4402 34.461 95.9497 33.6207C96.4592 32.7804 97.1562 32.1307 98.039 31.6708C98.9226 31.2116 99.9094 30.9817 101.001 30.9817C101.833 30.9817 102.592 31.1187 103.274 31.3912C103.956 31.6645 104.527 32.0803 104.987 32.641V31.1116H107.551V31.1101ZM103.921 38.8979C104.575 38.2876 104.901 37.4945 104.901 36.5172C104.901 35.5548 104.575 34.7721 103.921 34.1688C103.267 33.5656 102.431 33.2639 101.411 33.2639C100.377 33.2639 99.5329 33.5656 98.8801 34.1688C98.2264 34.7721 97.8996 35.5548 97.8996 36.5172C97.8996 37.4937 98.2264 38.2876 98.8801 38.8979C99.5329 39.5082 100.377 39.8138 101.411 39.8138C102.431 39.813 103.267 39.5082 103.921 38.8979Z" fill="white"/>
<path d="M111.079 26.6301H113.771V42.6145H111.079V26.6301Z" fill="white"/>
<path d="M128.076 37.7237H119.049C119.207 38.5711 119.62 39.2428 120.288 39.7382C120.956 40.2335 121.785 40.4816 122.776 40.4816C124.04 40.4816 125.081 40.065 125.9 39.2318L127.343 40.8903C126.827 41.5078 126.172 41.9748 125.383 42.2906C124.593 42.6064 123.703 42.7646 122.712 42.7646C121.448 42.7646 120.335 42.5134 119.373 42.011C118.411 41.5085 117.667 40.8084 117.143 39.9107C116.619 39.0129 116.357 37.997 116.357 36.8621C116.357 35.7423 116.613 34.7335 117.122 33.8357C117.632 32.9387 118.34 32.2378 119.245 31.7353C120.149 31.2329 121.169 30.9817 122.303 30.9817C123.423 30.9817 124.425 31.2298 125.308 31.7251C126.191 32.2205 126.881 32.9174 127.377 33.8144C127.872 34.7122 128.12 35.7502 128.12 36.9275C128.118 37.1134 128.104 37.3788 128.076 37.7237ZM120.116 33.9003C119.519 34.4106 119.157 35.0886 119.028 35.936H125.556C125.441 35.1036 125.089 34.4279 124.5 33.9113C123.911 33.3947 123.179 33.1356 122.303 33.1356C121.44 33.1348 120.712 33.3899 120.116 33.9003Z" fill="white"/>
<path d="M146.533 28.181C147.502 28.6118 148.246 29.2292 148.762 30.0332C149.28 30.8381 149.538 31.7926 149.538 32.8983C149.538 33.9898 149.28 34.9411 148.762 35.753C148.246 36.5642 147.502 37.1855 146.533 37.6163C145.563 38.0471 144.425 38.2629 143.118 38.2629H139.714V42.6147H136.914V27.5344H143.118C144.425 27.5344 145.563 27.7502 146.533 28.181ZM145.767 35.1175C146.399 34.6001 146.716 33.8606 146.716 32.8983C146.716 31.9359 146.4 31.1964 145.767 30.679C145.135 30.1616 144.209 29.9033 142.988 29.9033H139.714V35.8924H142.988C144.21 35.8932 145.136 35.6349 145.767 35.1175Z" fill="white"/>
<path d="M152.296 26.6301H154.988V42.6145H152.296V26.6301Z" fill="white"/>
<path d="M166.799 32.1984C167.697 33.0104 168.145 34.2342 168.145 35.8714V42.6142H165.603V41.214C165.273 41.7172 164.802 42.1008 164.192 42.3662C163.582 42.6316 162.845 42.7646 161.984 42.7646C161.122 42.7646 160.368 42.6174 159.722 42.3228C159.075 42.0283 158.577 41.6196 158.225 41.0951C157.873 40.5714 157.697 39.9784 157.697 39.3176C157.697 38.2836 158.082 37.4544 158.849 36.8299C159.617 36.2053 160.828 35.8927 162.479 35.8927H165.452V35.7202C165.452 34.9162 165.211 34.2987 164.731 33.868C164.25 33.4372 163.535 33.2214 162.587 33.2214C161.94 33.2214 161.305 33.3222 160.68 33.523C160.056 33.7246 159.528 34.0042 159.097 34.3633L158.041 32.4032C158.645 31.944 159.37 31.592 160.217 31.3479C161.065 31.1038 161.963 30.9817 162.91 30.9817C164.605 30.9809 165.901 31.3865 166.799 32.1984ZM164.343 40.3414C164.868 40.0327 165.237 39.5909 165.453 39.0168V37.6812H162.674C161.122 37.6812 160.347 38.1915 160.347 39.2105C160.347 39.6988 160.541 40.0871 160.929 40.3737C161.317 40.6612 161.855 40.8045 162.545 40.8045C163.219 40.8045 163.819 40.6501 164.343 40.3414Z" fill="white"/>
<path d="M182.15 31.1116L176.765 43.5419C176.261 44.7917 175.652 45.6706 174.934 46.1809C174.215 46.6904 173.347 46.9456 172.327 46.9456C171.752 46.9456 171.185 46.8518 170.625 46.6652C170.065 46.4786 169.605 46.2202 169.246 45.8895L170.323 43.9073C170.582 44.1514 170.886 44.3451 171.239 44.4893C171.591 44.6326 171.946 44.705 172.306 44.705C172.78 44.705 173.171 44.583 173.48 44.3388C173.789 44.0947 174.072 43.6852 174.331 43.1111L174.525 42.6591L169.505 31.1124H172.306L175.925 39.6216L179.566 31.1124H182.15V31.1116Z" fill="white"/>
<path d="M45.719 28.1536L38.4801 23.9766L32.5264 29.7318L37.9674 34.9917L45.719 30.5177C46.1459 30.272 46.401 29.8295 46.401 29.3365C46.4002 28.8427 46.1451 28.4009 45.719 28.1536Z" fill="#FFCF00"/>
<path d="M37.2526 23.2663L29.286 18.668L11.8281 9.72168L31.5462 28.7822L37.2526 23.2663Z" fill="#20BC72"/>
<path d="M12.1162 49.459L29.3142 39.9851L36.7382 35.7002L31.5445 30.6797L12.1162 49.459Z" fill="#FA3746"/>
<path d="M10.6606 10.4922L10.6417 48.9864L30.5621 29.7299L10.6606 10.4922Z" fill="#00A0FF"/>
</svg>
