<svg width="1320" height="162" viewBox="0 0 1320 162" fill="none" xmlns="http://www.w3.org/2000/svg">
<path d="M59.2635 28.3567C55.355 28.3567 52.9498 24.8357 52.9498 19.9836C52.9498 15.1744 54.9685 11.6105 59.2635 11.6105C62.0553 11.6105 63.9021 13.4139 64.2457 15.7756H70.7742C70.4306 12.8128 69.0991 10.2364 66.8227 8.51889C64.9329 7.05897 62.3559 6.2002 59.3064 6.2002C51.4465 6.2002 46.3354 12.1687 46.3354 19.9836C46.3354 27.8843 51.6183 33.6811 59.3494 33.6811C63.0431 33.6811 65.7919 32.6505 67.7676 30.6754C69.5716 28.9578 70.7742 26.5532 70.946 23.9339H64.4175C64.1169 26.5103 62.1841 28.3567 59.2635 28.3567Z" fill="#262626"/>
<path d="M82.9717 13.7139C76.9157 13.7139 72.8784 18.0507 72.8784 23.7186C72.8784 29.3866 76.9157 33.7234 82.9717 33.7234C89.0707 33.7234 93.0221 29.3866 93.0221 23.7186C93.0221 18.0507 89.0277 13.7139 82.9717 13.7139ZM82.9288 29.4295C80.3088 29.4295 78.9344 27.1537 78.9344 23.7186C78.9344 20.2835 80.3088 17.9648 82.9288 17.9648C85.5487 17.9648 86.9661 20.2835 86.9661 23.7186C86.9232 27.1537 85.5487 29.4295 82.9288 29.4295Z" fill="#262626"/>
<path d="M101.569 11.6953C102.857 10.4071 102.857 8.34609 101.569 7.05792C100.28 5.76976 98.2185 5.76976 96.93 7.05792C95.6415 8.34609 95.6415 10.4071 96.93 11.6953C98.1756 12.9835 100.28 12.9835 101.569 11.6953Z" fill="#6B788E"/>
<path d="M94.0098 18.4804H96.5438V33.1655H102.557V14.2295H94.0527V18.4804H94.0098Z" fill="#262626"/>
<path d="M117.246 13.6709C114.626 13.6709 112.822 14.7873 111.405 16.8054H111.276V14.2291H105.521V33.1222H111.534V22.6881C111.534 20.3694 112.865 18.6947 114.841 18.6947C116.817 18.6947 117.805 20.0688 117.805 22.044V33.1222H123.818V20.8417C123.818 16.6337 121.369 13.6709 117.246 13.6709Z" fill="#262626"/>
<path d="M137.905 6.71484H126.652V33.0793H137.475C140.783 33.0793 143.445 32.2205 145.507 30.6747C148.471 28.399 150.103 24.7062 150.103 20.0259C150.103 11.9963 145.206 6.71484 137.905 6.71484ZM137.003 27.6261H133.18V12.1681H137.089C141.169 12.1681 143.531 15.2597 143.531 20.0688C143.488 24.9209 141.298 27.6261 137.003 27.6261Z" fill="#262626"/>
<path d="M167.927 16.1614C166.295 14.7015 164.148 13.7998 161.485 13.7998C155.73 13.7998 151.821 18.1366 151.821 23.7616C151.821 29.4725 155.644 33.8093 161.871 33.8093C164.277 33.8093 166.166 33.1652 167.756 32.0918C169.388 30.9324 170.504 29.3437 170.934 27.6261H165.093C164.577 28.7855 163.546 29.5154 161.957 29.5154C159.509 29.5154 158.092 27.9267 157.705 25.3933H171.278C171.278 21.4859 170.161 18.2225 167.927 16.1614ZM157.705 21.7435C158.092 19.4677 159.294 18.0508 161.571 18.0508C163.504 18.0508 164.921 19.5107 165.136 21.7435H157.705Z" fill="#262626"/>
<path d="M183.088 21.3141C180.683 20.8847 178.579 20.67 178.579 19.3819C178.579 18.2225 179.738 17.6643 181.199 17.6643C182.874 17.6643 183.99 18.1796 184.205 19.8542H189.746C189.445 16.1185 186.567 13.7998 181.242 13.7998C176.775 13.7998 173.081 15.8609 173.081 19.8542C173.081 24.2769 176.56 25.1786 179.867 25.6939C182.401 26.1233 184.678 26.338 184.678 28.0126C184.678 29.2578 183.518 29.9019 181.714 29.9019C179.738 29.9019 178.493 29.0002 178.235 27.1109H172.566C172.737 31.2759 176.216 33.8523 181.757 33.8523C186.696 33.8523 190.347 31.7053 190.347 27.5832C190.304 22.7311 186.439 21.8723 183.088 21.3141Z" fill="#262626"/>
<path d="M204.435 21.3151L211.092 14.2302H204.177L198.55 20.628V6.75879H192.623V33.1662H198.55V27.3694L200.354 25.4372L204.864 33.1662H211.822L204.435 21.3151Z" fill="#262626"/>
<path d="M19.9211 21.7436C20.909 21.7436 21.725 20.9278 21.725 19.9402C21.725 18.9526 20.909 18.1367 19.9211 18.1367C18.9332 18.1367 18.1172 18.9526 18.1172 19.9402C18.1172 20.9278 18.8903 21.7436 19.9211 21.7436Z" fill="#F8BF1E"/>
<path d="M34.4384 21.7436C35.4263 21.7436 36.2423 20.9278 36.2423 19.9402C36.2423 18.9526 35.4263 18.1367 34.4384 18.1367C33.4506 18.1367 32.6345 18.9526 32.6345 19.9402C32.6345 20.9278 33.4076 21.7436 34.4384 21.7436Z" fill="#F8BF1E"/>
<path d="M34.4381 36.3432C35.426 36.3432 36.242 35.5274 36.242 34.5398C36.242 33.5522 35.426 32.7363 34.4381 32.7363C33.4502 32.7363 32.6342 33.5522 32.6342 34.5398C32.5912 35.5274 33.4073 36.3432 34.4381 36.3432Z" fill="#F8BF1E"/>
<path d="M39.7637 5.04013C39.5919 2.37792 37.4443 0.230975 34.7814 0.0162804C33.0634 -0.112536 31.5602 0.531548 30.4864 1.64796C29.6703 2.50674 28.5536 2.97907 27.394 2.97907H26.9645C25.7619 2.97907 24.6452 2.46379 23.7861 1.60502C22.7983 0.617423 21.4239 0.0162804 19.9206 0.0162804C18.4174 0.0162804 17.043 0.660362 16.0551 1.60502C15.1961 2.46379 14.0794 2.97907 12.8768 2.97907H12.4902C11.3306 2.97907 10.1709 2.50674 9.35485 1.6909C9.18305 1.51915 9.01125 1.34739 8.83945 1.21857C6.82079 -0.456046 3.81427 -0.370167 1.83856 1.34739C-0.523709 3.45139 -0.609611 7.1012 1.58085 9.29108C1.6238 9.33402 1.6238 9.33402 1.66675 9.37696C2.52576 10.1928 2.99821 11.3521 2.99821 12.5115V12.9409C2.99821 14.1432 2.48281 15.2596 1.6238 16.1184C0.635948 17.106 0.034644 18.48 0.034644 19.9829C0.034644 21.4857 0.678899 22.8598 1.6238 23.8474C2.48281 24.7061 2.99821 25.8225 2.99821 27.0248V27.583C2.99821 28.7424 2.48281 29.8588 1.66675 30.6746C0.592997 31.7052 -0.0512565 33.1651 0.034644 34.7968C0.163495 37.6307 2.43986 39.9065 5.27458 39.9924C6.90669 40.0353 8.367 39.3912 9.3978 38.3178C10.2139 37.459 11.3306 36.9437 12.4902 36.9437H12.9627C14.1223 36.9437 15.239 37.459 16.0551 38.3178C17.1289 39.4342 18.6751 40.0783 20.3931 39.9924C23.056 39.8206 25.2035 37.6307 25.4183 34.9685C25.633 31.7911 23.1419 29.1288 20.0065 29.1288C18.5033 29.1288 17.1718 29.73 16.184 30.7176C15.3249 31.5764 14.2082 32.0487 13.0486 32.0487H12.5332C11.3735 32.0487 10.2139 31.5764 9.35485 30.7176C9.3119 30.6746 9.31191 30.6746 9.31191 30.6746C8.4529 29.8159 7.93749 28.6995 7.93749 27.4972V26.9819C7.93749 25.7796 8.4529 24.6632 9.31191 23.8044C10.2998 22.8168 10.9011 21.4428 10.9011 19.9399C10.9011 18.4371 10.2568 17.063 9.31191 16.0754C8.4529 15.2166 7.93749 14.1002 7.93749 12.8979V12.4686C7.93749 11.2663 8.4529 10.1499 9.26895 9.29108C9.3119 9.24814 9.31191 9.24814 9.31191 9.24814C9.35486 9.2052 9.35485 9.2052 9.35485 9.2052C10.2139 8.34643 11.3306 7.8741 12.5332 7.8741H12.9627C14.1653 7.8741 15.282 8.38936 16.141 9.24814C17.1289 10.2357 18.5033 10.8369 20.0065 10.8369C21.5098 10.8369 22.8842 10.1928 23.872 9.24814C24.7311 8.38936 25.8478 7.8741 27.0504 7.8741H27.4369C28.6395 7.8741 29.7562 8.38936 30.6152 9.24814C31.6031 10.2357 32.9775 10.8369 34.4808 10.8369C37.4873 10.8798 39.9784 8.2176 39.7637 5.04013Z" fill="#F8BF1E"/>
<g clip-path="url(#clip0_1_188)">
<path d="M336.142 3.15625H356.276C356.264 3.42255 356.172 3.67902 356.012 3.89234C355.33 5.06122 354.717 6.27781 354.047 7.44669C353.1 9.12504 352.214 10.8341 351.251 12.5056C350.641 13.7086 349.953 14.874 349.302 16.0565C345.39 16.0565 341.477 16.0565 337.565 16.0565C337.361 16.0565 337.158 16.0668 336.954 16.0787C336.783 16.5285 336.5 16.9221 336.272 17.3447C335.974 17.8286 335.732 18.3449 335.437 18.8288C335.125 19.4797 334.694 20.0624 334.381 20.7116C333.733 21.8106 333.128 22.9267 332.494 24.0377C331.833 25.1736 331.187 26.3254 330.555 27.4932C330.288 27.9071 330.042 28.3341 329.818 28.7728C328.494 31.0765 327.212 33.4006 325.887 35.7026C325.774 35.9501 325.626 36.1797 325.447 36.3842C323.181 36.3689 320.915 36.3842 318.648 36.3842C318.369 36.3895 318.092 36.4284 317.822 36.5001C317.822 35.873 318.241 35.3704 318.524 34.8439C318.865 34.1367 319.32 33.4807 319.662 32.7719C322.378 27.9123 325.065 23.0358 327.773 18.1728C328.386 17.1164 328.913 16.0378 329.53 15.0018C330.3 13.6387 331.017 12.2449 331.82 10.8971C332.075 10.3331 332.419 9.81683 332.701 9.26647C333.699 7.48929 334.679 5.70189 335.674 3.92471C335.792 3.64717 335.95 3.3883 336.142 3.15625Z" fill="#2E81FD"/>
<path d="M359.472 10.3108C360.813 7.96793 362.108 5.5995 363.468 3.26685H370.74C370.846 3.2722 370.951 3.28877 371.054 3.31626C370.812 3.6826 370.609 4.07109 370.396 4.45277C368.642 7.60045 366.893 10.7498 365.15 13.9009C364.417 15.184 363.736 16.496 362.993 17.7722L362.919 17.7978L362.906 17.9579C359.487 24.092 356.079 30.2306 352.682 36.3738C346.006 36.3806 339.33 36.3806 332.653 36.3738C333.033 35.5798 333.483 34.8215 333.905 34.0497C335.807 30.5532 337.758 27.0875 339.632 23.5911C343.734 23.5843 347.836 23.5843 351.938 23.5911C354.471 19.1779 356.951 14.7307 359.466 10.3108H359.472Z" fill="#2E81FD"/>
<path d="M434.524 3.17676V36.7779H440.347V13.1497L450.967 28.7115L461.502 12.78V36.7779H467.495V3.17676H461.049L451.01 18.6874L440.858 3.17676H434.524Z" fill="#262626"/>
<path d="M407.291 11.8425H411.096V37.0604H407.291V11.8425Z" fill="#262626"/>
<path d="M406.964 2.5H411.423V6.73081H406.964V2.5Z" fill="#262626"/>
<path d="M418.366 4.61621H422.342V11.8425H430.179V15.3645H422.342V30.3452C422.335 30.9225 422.469 31.4927 422.732 32.0066C423.405 33.2845 425.233 34.801 430.179 33.0289V36.2936C430.179 36.2936 425.664 38.8495 421.575 36.5219C421.575 36.5219 419.544 35.6597 418.69 32.7495C418.468 31.9699 418.359 31.1625 418.366 30.3521V15.3082L415.015 15.3645V11.8425H418.394L418.366 4.61621Z" fill="#262626"/>
<path d="M473.629 3.17676V37.0045H498.903V31.552H479.792V22.5775H496.632V17.2102H479.763V8.66334H498.706V3.17676H473.629Z" fill="#262626"/>
<path d="M501.275 3.17676H508.474L516.738 15.053L524.937 3.17676H532.136L520.379 19.674L532.869 36.9755H525.287L516.767 24.3393L507.835 37.0045H500.636L512.947 19.8239L501.275 3.17676Z" fill="#262626"/>
<path d="M395.646 19.4542C395.646 19.4542 401.213 17.3533 400.872 11.3044C400.872 11.3044 400.826 5.48726 394.277 3.69133C393.188 3.39954 392.064 3.25513 390.937 3.26195H375.229L375.271 36.863H392.182C392.182 36.863 402.079 36.6501 402.776 27.8323C402.776 27.8323 403.484 21.6693 395.646 19.4542ZM379.289 6.73111H389.315C397.18 6.70385 396.953 12.2416 396.953 12.2416C397.071 18.5596 389.853 18.4319 389.853 18.4319H379.289V6.73111ZM391.557 33.3121H379.289V21.6131H391.019C398.884 21.5841 398.657 27.1218 398.657 27.1218C398.775 33.4399 391.557 33.3121 391.557 33.3121Z" fill="#262626"/>
</g>
<path d="M666.797 6.65868H665.623V0H658.941V6.65868H652.258V0H645.552V6.65868H638.869V13.3174H645.552V26.6587H638.869V33.3174H645.552V40H652.234V33.3413H658.917V40H665.599V33.3413H666.773C674.15 33.3413 680.162 27.3772 680.162 20C680.186 12.6467 674.198 6.65868 666.797 6.65868ZM666.797 26.6826H652.258V13.3413H666.821C670.51 13.3413 673.504 16.3353 673.504 20C673.504 23.6886 670.486 26.6826 666.797 26.6826Z" fill="#15C8B1"/>
<path d="M699.592 7.83398H689.624V32.6504H699.592C706.465 32.6504 711.702 27.2646 711.702 20.2422C711.702 13.2198 706.465 7.83398 699.592 7.83398ZM699.592 27.205H695.307V13.3091H699.562C703.49 13.3091 706.168 16.0168 706.168 20.2719C706.168 24.527 703.49 27.205 699.592 27.205Z" fill="#1B2431"/>
<path d="M719.468 25.9247H732.115C732.263 25.2403 732.323 24.5559 732.323 23.7823C732.323 18.4262 728.484 14.4092 723.277 14.4092C717.653 14.4092 713.815 18.4857 713.815 23.7823C713.815 29.0788 717.594 33.1554 723.664 33.1554C727.056 33.1554 729.675 31.9056 731.43 29.4954L727.175 27.0554C726.461 27.8291 725.211 28.3944 723.753 28.3944C721.789 28.4242 720.153 27.7696 719.468 25.9247ZM719.379 21.9672C719.885 20.1521 721.224 19.1701 723.247 19.1701C724.854 19.1701 726.461 19.914 727.026 21.9672H719.379Z" fill="#1B2431"/>
<path d="M740.684 18.1001V14.9459H735.358V32.6804H740.684V24.6463C740.684 21.1352 743.809 20.2425 746.011 20.5995V14.5889C743.779 14.5889 741.399 15.7196 740.684 18.1001Z" fill="#1B2431"/>
<path d="M751.188 13.3678C752.944 13.3678 754.402 11.9097 754.402 10.1839C754.402 8.45804 752.944 7 751.188 7C749.433 7 747.975 8.45804 747.975 10.1839C747.975 11.9097 749.433 13.3678 751.188 13.3678ZM748.51 32.6793H753.836V14.9448H748.51V32.6793Z" fill="#1B2431"/>
<path d="M768.417 14.4398C766.036 14.4398 764.281 15.2432 763.12 16.612V7.83398H757.794V32.6504H763.12V30.984C764.281 32.3231 766.036 33.1562 768.417 33.1562C773.088 33.1562 776.927 29.0797 776.927 23.7831C776.897 18.5163 773.059 14.4398 768.417 14.4398ZM767.346 28.1275C764.876 28.1275 763.12 26.4611 763.12 23.8129C763.12 21.1646 764.906 19.4983 767.346 19.4983C769.815 19.4983 771.571 21.1646 771.571 23.8129C771.571 26.4611 769.786 28.1275 767.346 28.1275Z" fill="#1B2431"/>
<path d="M782.61 13.3678C784.366 13.3678 785.824 11.9097 785.824 10.1839C785.824 8.45804 784.366 7 782.61 7C780.855 7 779.397 8.45804 779.397 10.1839C779.397 11.9097 780.855 13.3678 782.61 13.3678ZM779.932 32.6793H785.259V14.9448H779.932V32.6793Z" fill="#1B2431"/>
<path d="M799.631 20.034V14.9458H795.971V9.97656L790.645 11.5834V14.9458H787.788V20.0638H790.645V26.3423C790.645 31.3115 792.668 33.3944 799.661 32.6803V27.8301C797.31 27.9789 796.001 27.8301 796.001 26.3125V20.034H799.631Z" fill="#1B2431"/>
<g clip-path="url(#clip1_1_188)">
<path d="M907.745 29.0667C907.745 28.5333 907.345 28.2667 906.945 28.2667C906.145 28.2667 905.078 28.4 904.277 28.4C899.742 28.4 896.008 24.6667 896.008 20.1333V1.86667V0.266667C896.008 0.133333 895.874 0 895.741 0H884.403L884.27 0.133333V20C884.27 31.0667 893.207 40 904.277 40C905.344 40 906.412 39.8667 907.479 39.7333C907.612 39.7333 907.745 39.6 907.745 39.4667V29.0667Z" fill="#252C36"/>
<path d="M904.277 0C903.21 0 902.01 0.133333 900.943 0.266667C900.809 0.266667 900.676 0.4 900.676 0.533333V10.9333C900.676 11.4667 901.076 11.8667 901.476 11.7333C901.877 11.7333 904.144 11.6 904.144 11.6C908.679 11.6 912.414 15.3333 912.414 19.8667V37.8667C912.414 38 912.547 38 912.547 38C919.483 34.9333 924.285 28 924.285 20C924.285 8.93333 915.348 0 904.277 0Z" fill="#252C36"/>
<path d="M968.568 8.26693V2.93359L962.166 3.46693V8.40026H968.568V8.26693ZM980.306 6.53359L974.17 7.06693V27.4669C974.17 31.4669 976.037 33.8669 980.706 33.8669C982.706 33.8669 984.174 33.4669 985.641 32.9336V28.0003C984.307 28.5336 983.24 28.6669 982.04 28.6669C980.972 28.6669 980.439 28.1336 980.439 27.0669V16.9336H985.641V11.8669H980.306V6.53359ZM962.166 33.4669H968.568V11.8669H962.166V33.4669ZM950.028 28.8003C949.227 29.0669 947.76 29.0669 946.56 29.0669C944.559 29.0669 942.825 29.0669 941.758 28.9336V22.6669H946.426C949.761 22.6669 951.228 23.6003 951.228 25.8669C951.095 27.0669 950.695 28.0003 950.028 28.8003ZM941.625 11.7336C942.692 11.7336 944.026 11.6003 945.493 11.6003C948.961 11.6003 950.428 12.6669 950.428 14.8003C950.428 16.0003 949.894 16.9336 948.827 17.7336C947.894 17.8669 946.827 18.0003 945.626 18.0003C944.159 18.0003 942.692 18.0003 941.625 17.8669V11.7336ZM953.362 19.6003C955.363 18.4003 957.097 16.5336 957.097 13.7336C957.097 9.06693 953.496 6.53359 945.893 6.53359H935.089V33.4669H947.627C954.296 33.4669 957.764 30.9336 957.764 25.8669C957.764 22.5336 955.897 20.6669 953.362 19.6003ZM998.979 20.6669C995.778 20.1336 994.978 19.7336 994.978 18.8003C994.978 18.2669 995.111 17.8669 995.378 17.6003C996.178 17.3336 997.512 17.2003 998.712 17.2003C1001.25 17.2003 1003.51 17.6003 1005.38 18.1336V12.9336C1003.91 12.1336 1001.51 11.4669 998.179 11.4669C992.577 11.4669 988.975 14.1336 988.975 18.6669C988.975 23.0669 991.51 24.4003 996.311 25.2003C999.779 25.8669 1000.58 26.2669 1000.58 27.3336C1000.58 27.8669 1000.45 28.1336 1000.31 28.4003C999.513 28.6669 998.179 28.9336 996.445 28.9336C994.044 28.9336 991.243 28.4003 989.642 27.8669V32.8003C991.376 33.4669 994.177 33.8669 996.712 33.8669C1002.71 33.8669 1006.58 32.0003 1006.58 27.2003C1006.58 23.0669 1004.05 21.6003 998.979 20.6669ZM1022.05 28.2669C1021.25 28.8003 1020.32 29.0669 1019.12 29.0669C1016.59 29.0669 1015.12 26.9336 1015.12 23.2003C1015.12 21.0669 1015.52 19.2003 1016.32 18.2669C1017.12 17.6003 1018.05 17.3336 1019.25 17.3336C1021.92 17.3336 1023.12 19.4669 1023.12 22.6669C1023.25 24.9336 1022.85 26.9336 1022.05 28.2669ZM1019.65 11.4669C1012.32 11.4669 1008.98 16.4003 1008.98 23.2003C1008.98 29.8669 1012.85 33.8669 1018.99 33.8669C1026.32 33.8669 1029.52 28.9336 1029.52 22.2669C1029.52 15.6003 1025.79 11.4669 1019.65 11.4669Z" fill="#252C36"/>
</g>
<g clip-path="url(#clip2_1_188)">
<path d="M1199.31 21.896H1206.85V26.8902C1205.23 27.8613 1203.03 28.4625 1200.91 28.4625C1195.54 28.4625 1191.93 24.9943 1191.93 19.8151C1191.93 14.5896 1195.5 11.0752 1200.77 11.0752C1203.61 11.0752 1205.9 11.9307 1207.98 13.7341L1208.28 14.0116L1210.45 10.5434L1210.22 10.3584C1207.47 8.04628 1204.35 6.91333 1200.72 6.91333C1197.04 6.91333 1193.72 8.11564 1191.33 10.3122C1188.79 12.6474 1187.45 15.9307 1187.45 19.7919C1187.45 27.3295 1192.91 32.6012 1200.72 32.6012C1204.3 32.6012 1208.7 31.2139 1211.15 29.318L1211.29 29.2023V17.9422H1199.33V21.896H1199.31Z" fill="black"/>
<path d="M1236.1 32.2545V28.2776H1220.79V21.3412H1233.48V17.3643H1220.79V11.2371H1236.1V7.26025H1216.54V32.2545H1236.1Z" fill="black"/>
<path d="M1264.35 7.26025L1254.62 18.9597L1244.91 7.26025H1241V32.2545H1245.41V14.4741L1254.08 24.925H1255.13L1263.8 14.4741V32.2545H1268.21V7.26025H1264.35Z" fill="black"/>
<path d="M1279.13 7.26025H1274.71V32.2545H1279.13V7.26025Z" fill="black"/>
<path d="M1289.51 7.37586L1289.39 7.26025H1285.6V32.2545H1290.02V14.4972L1304.86 32.1389L1304.98 32.2545H1308.74V7.26025H1304.33V25.0868L1289.51 7.37586Z" fill="black"/>
<path d="M1319.63 7.26025H1315.22V32.2545H1319.63V7.26025Z" fill="black"/>
<path d="M1161.69 0.346924C1154.78 0.346924 1148.91 5.66485 1148.17 12.5088C1141.32 13.2487 1136 19.1215 1136 26.0348C1136 33.5492 1142.11 39.6533 1149.62 39.6533C1156.54 39.6533 1162.43 34.3354 1163.15 27.4914C1169.99 26.7515 1175.31 20.8787 1175.31 13.9654C1175.31 6.45096 1169.21 0.346924 1161.69 0.346924ZM1172.12 15.4914C1171.45 20.0464 1167.8 23.6995 1163.24 24.37V15.4914H1172.12ZM1139.19 24.5088C1139.87 19.9307 1143.52 16.2776 1148.07 15.607V24.4856H1139.19V24.5088ZM1160.05 27.5839C1159.29 32.74 1154.87 36.5781 1149.62 36.5781C1144.37 36.5781 1139.96 32.74 1139.19 27.5839H1160.05ZM1160.17 15.4914V24.4856H1151.15V15.4914H1160.17ZM1172.12 12.4163H1151.26C1152.03 7.26022 1156.44 3.42206 1161.69 3.42206C1166.94 3.42206 1171.36 7.26022 1172.12 12.4163Z" fill="#00DCFA"/>
</g>
<path d="M214.231 111.411C216.571 111.411 218.48 113.32 218.48 115.662C218.48 117.918 216.571 119.827 214.231 119.827C211.89 119.827 209.981 117.918 209.981 115.662C209.98 113.32 211.89 111.411 214.231 111.411ZM269.414 130.066C269.414 125.12 273.754 122.258 278.265 122.171C281.127 122.171 284.513 122.951 286.159 124.427C285.552 125.729 284.946 127.117 284.335 128.417C283.382 127.81 280.951 126.855 278.697 126.855C276.873 126.855 275.138 127.55 275.138 129.285C275.138 133.363 286.68 131.194 286.68 140.304C286.68 144.555 283.468 148.547 277.656 148.547C274.098 148.547 271.15 147.419 268.284 145.77C268.891 144.296 269.672 142.734 270.279 141.346C271.408 141.692 273.838 143.169 276.44 143.515C278.349 143.69 280.691 143.254 280.691 141.346C280.691 136.313 269.414 138.655 269.414 130.066ZM153.322 145.857C153.235 145.943 153.149 146.117 153.063 146.204C151.587 148.026 149.678 148.806 147.249 148.895C142.997 149.07 139.44 145.596 139.44 141.172C139.44 134.057 146.122 132.322 152.542 132.148V130.237C152.542 127.982 150.547 127.461 148.464 127.461C146.122 127.635 143.604 128.762 142.476 129.37C142.042 127.982 141.521 126.42 141.002 125.031C143.17 123.557 146.815 122.429 150.285 122.515C154.536 122.515 158.44 124.164 158.44 129.023V141.605C158.44 143.945 158.961 145.162 160.089 146.635C158.787 147.244 157.573 147.763 156.271 148.37C155.143 148.892 155.143 149.153 154.362 148.11C153.842 147.333 153.408 146.724 153.322 145.857ZM152.541 136.66H150.632C148.462 136.66 145.598 137.702 145.598 140.651C145.426 142.906 146.9 144.641 148.895 144.641C151.239 144.641 152.539 143.338 152.539 141.258C152.541 138.916 152.541 136.66 152.541 136.66ZM108.985 121.911C110.112 122.606 110.633 124.253 110.892 125.901C112.889 123.298 115.317 122.258 118.007 122.171C120.349 122.085 122.693 123.125 123.56 125.901C125.555 123.384 128.245 122.258 130.848 122.171C133.971 122.085 136.835 123.733 136.835 129.199V148.199H130.587V131.194C130.587 129.025 129.46 127.897 127.725 127.897C126.076 127.897 123.994 129.285 124.081 131.539V148.2H118.009V131.195C118.009 129.026 116.881 128.158 115.146 128.158C112.976 128.158 111.154 129.374 111.154 131.369V148.201H104.994V128.942C104.994 126.859 104.734 125.558 103.866 124.343C105.341 123.646 107.509 122.517 108.985 121.911ZM227.07 121.737C228.284 122.517 228.805 124.166 229.153 125.815C231.323 123.039 234.707 121.737 237.568 122.171C240.432 122.604 242.686 124.774 242.686 129.112V148.199H236.439V130.674C236.439 128.505 234.791 127.551 232.968 127.551C230.973 127.551 229.238 129.46 229.238 131.455V148.199H222.99V128.851C222.99 126.768 222.73 125.379 221.863 124.252C223.341 123.559 225.682 122.432 227.07 121.737ZM190.023 111.411V125.814C192.192 123.645 194.795 122.256 197.571 122.17C200.784 122.084 203.298 124.253 203.298 129.632V148.199H197.311V130.846C197.311 128.677 195.923 127.723 194.1 127.809C191.669 127.809 190.021 129.632 190.021 131.626V148.2H184.032V114.188L190.023 111.411ZM266.983 136.833H252.147C252.061 140.737 254.403 144.295 258.654 143.688C260.477 143.427 262.558 142.473 264.467 141.518L266.202 145.769C263.686 147.592 260.736 148.721 257.526 148.806C249.457 148.981 245.986 143.167 245.814 135.618C245.727 127.288 249.978 122.515 256.138 121.996C264.988 121.216 267.07 129.806 266.983 136.833ZM256.485 126.595C254.229 126.595 252.581 128.764 252.234 132.408H260.649C260.563 128.678 258.654 126.595 256.485 126.595ZM173.884 122.865C176.487 122.865 178.83 123.733 180.825 125.207L178.568 128.938C178.222 129.633 178.222 129.892 177.614 129.285C176.573 128.243 175.272 127.55 173.883 127.55C170.412 127.55 168.504 130.066 168.504 135.793C168.504 141.692 170.413 144.208 173.883 144.208C175.359 144.208 176.746 143.427 177.875 142.213C178.394 141.518 178.222 141.259 178.568 142.127L180.216 146.552C178.219 147.94 175.617 148.81 172.754 148.81C165.553 148.81 161.821 143.515 161.821 135.793C161.824 127.984 167.204 122.865 173.884 122.865ZM206.337 123.037H217.182V148.2H211.108V127.897H206.337V123.037Z" fill="#1B2431"/>
<path d="M96.576 123.646C99.8731 124.686 100.741 127.029 100.22 129.373C99.266 133.971 95.1014 136.14 90.6764 137.008C87.9001 137.615 84.9497 137.703 82.5213 137.529C81.9142 139.87 81.5674 141.694 85.6444 144.991C85.7308 144.991 85.7308 145.077 85.8184 145.166C82.0869 145.773 78.01 146.379 74.0181 146.988C72.9767 147.165 73.0643 146.988 72.2832 146.207C69.5932 143.345 69.2464 139.092 70.5483 135.362C72.7175 129.463 78.8774 125.384 84.8645 123.736C88.7675 122.777 93.1061 122.604 96.576 123.646ZM94.9286 141.692C89.7226 145.163 83.9958 148.026 76.9673 149.24C78.0963 149.587 79.2242 149.761 80.6111 149.761C88.8539 149.935 93.9736 146.117 96.4896 143.774L94.9286 141.692ZM84.3426 134.231C85.6444 134.144 87.9001 133.536 89.5486 132.061C90.7628 131.02 91.8907 129.199 90.6764 127.81C89.7226 126.681 87.3793 126.855 85.6444 129.633C84.6893 131.021 83.7355 133.103 84.3426 134.231Z" fill="#1B2431"/>
<path d="M421.775 109.762C421.775 109.762 447.439 127.784 449.158 134.789C450.432 140.074 446.739 144.914 446.739 144.914C446.739 144.914 444.764 131.159 395.602 152.046C400.569 146.506 403.308 139.374 402.544 131.732C402.225 128.611 401.461 125.618 400.124 122.944L411.65 128.994C411.65 129.185 411.65 129.376 411.714 129.567C412.159 134.215 411.841 138.8 410.758 143.003C413.115 138.036 414.261 132.369 413.688 126.51C413.369 122.944 412.478 119.569 411.077 116.512L423.367 124.727C423.431 125.109 423.431 125.555 423.495 125.937C424.004 131.095 423.495 136.126 422.157 140.711C425.023 135.362 426.488 129.121 425.851 122.689C425.405 117.977 424.004 113.646 421.775 109.762ZM453.107 132.687C453.107 140.074 459.22 145.232 466.989 144.914C471.638 144.723 474.376 143.003 475.331 142.558V136.19H474.376C473.485 140.074 471.129 143.322 467.053 143.322C462.022 143.322 458.137 138.418 458.137 132.687C458.137 126.956 462.086 122.052 467.053 122.052C471.129 122.052 473.485 125.236 474.376 129.185H475.331V122.816C474.376 122.371 471.638 120.715 466.989 120.46C459.22 120.142 453.107 125.3 453.107 132.687ZM489.723 120.46C482.91 120.46 477.624 125.937 477.624 132.751C477.624 139.501 482.91 145.041 489.723 145.041C496.537 145.041 501.823 139.565 501.823 132.751C501.823 125.937 496.537 120.46 489.723 120.46ZM489.723 143.513C485.457 143.513 482.591 138.482 482.591 132.687C482.591 126.956 485.457 121.861 489.723 121.861C493.99 121.861 496.856 126.892 496.856 132.687C496.856 138.418 493.99 143.513 489.723 143.513ZM529.588 125.491C529.588 123.517 531.626 121.925 533.727 121.861C536.02 121.861 538.312 122.88 539.522 127.338H540.159V121.989C539.204 121.67 536.911 120.46 533.664 120.46C529.715 120.46 525.767 122.88 525.767 127.401C525.767 135.489 536.848 133.961 536.848 139.374C536.848 142.112 535.192 143.386 532.645 143.386C530.161 143.386 527.296 141.348 526.34 137.272H525.512V143.131C526.531 143.449 529.142 144.978 532.517 144.978C538.376 144.978 541.242 141.093 541.242 137.591C541.305 128.93 529.588 131.541 529.588 125.491ZM573.656 123.39C573.656 122.88 573.974 122.434 574.356 122.18L575.884 121.352V120.97H566.778V121.352L568.306 122.18C568.752 122.434 569.007 122.88 569.007 123.39V142.048C569.007 142.558 568.689 143.003 568.306 143.258L566.778 144.086V144.468H575.884V144.086L574.356 143.258C573.91 143.003 573.656 142.558 573.656 142.048V123.39ZM502.014 120.97V121.352L503.542 122.18C503.988 122.434 504.243 122.88 504.243 123.39V142.048C504.243 142.558 503.924 143.003 503.542 143.258L502.014 144.086V144.468H511.12V144.086L509.592 143.258C509.146 143.003 508.892 142.558 508.892 142.048V123.39C508.892 123.071 509.019 122.816 509.146 122.562C509.274 122.371 509.465 122.307 509.719 122.307H512.649C514.432 122.307 516.342 124.408 516.342 127.019V128.357C516.342 130.968 514.623 132.751 512.649 132.751H510.866C510.866 132.751 516.597 142.621 517.489 143.704C518.762 145.296 522.965 147.397 526.213 146.697C523.029 144.978 520.036 139.501 517.552 134.916C516.215 134.725 515.323 134.279 514.75 133.897C519.781 133.897 521.055 129.758 521.055 127.72C521.055 122.18 517.17 121.033 512.776 121.033H502.014V120.97ZM577.795 120.97V121.352L579.323 122.18C579.769 122.434 580.024 122.88 580.024 123.39V142.048C580.024 142.558 579.705 143.003 579.323 143.258L577.795 144.086V144.468H586.901V144.086L585.373 143.258C584.927 143.003 584.673 142.558 584.673 142.048V123.39C584.673 123.071 584.8 122.816 584.927 122.562C585.055 122.371 585.246 122.307 585.5 122.307H588.43C590.213 122.307 592.123 124.408 592.123 127.019V128.357C592.123 130.968 590.404 132.751 588.43 132.751H586.647C586.647 132.751 592.378 142.621 593.27 143.704C594.543 145.296 598.746 147.397 601.994 146.697C598.81 144.978 595.817 139.501 593.333 134.916C591.996 134.725 591.104 134.279 590.531 133.897C595.562 133.897 596.836 129.758 596.836 127.72C596.836 122.18 592.951 121.033 588.557 121.033H577.795V120.97ZM564.04 143.258C563.721 143.067 563.53 142.812 563.403 142.558L554.742 120.97H551.94L543.28 142.558C543.152 142.876 542.961 143.131 542.643 143.258L541.114 144.086V144.468H548.119V144.086L546.782 143.386C546.336 143.131 546.018 142.685 546.018 142.112C546.018 141.921 546.082 141.73 546.145 141.602L548.056 136.89H556.207L558.117 141.602C558.181 141.73 558.181 141.921 558.181 142.048C558.181 142.494 557.99 142.876 557.672 143.131C557.608 143.194 557.544 143.194 557.481 143.258L555.952 144.086V144.468H565.568V144.086L564.04 143.258ZM548.629 135.171L552.004 126.765L555.379 135.171H548.629Z" fill="#262626"/>
<path d="M421.775 109.762C421.775 109.762 447.439 127.784 449.158 134.789C450.432 140.074 446.739 144.914 446.739 144.914C446.739 144.914 444.764 131.159 395.602 152.046C400.569 146.506 403.308 139.374 402.544 131.732C402.225 128.611 401.461 125.618 400.124 122.944L411.65 128.994C411.65 129.185 411.65 129.376 411.714 129.567C412.159 134.215 411.841 138.8 410.758 143.003C413.115 138.036 414.261 132.369 413.688 126.51C413.369 122.944 412.478 119.569 411.077 116.512L423.367 124.727C423.431 125.109 423.431 125.555 423.495 125.937C424.004 131.095 423.495 136.126 422.157 140.711C425.023 135.362 426.488 129.121 425.851 122.689C425.405 117.977 424.004 113.646 421.775 109.762Z" fill="#7C3FFD"/>
<path fill-rule="evenodd" clip-rule="evenodd" d="M781.183 119.047L763.734 119.185L762.938 123.892L769.166 123.844L765.096 143.437L770.052 143.398L774.129 123.805L780.159 123.759L781.183 119.047ZM795.151 123.221C795.151 123.221 789.215 119.463 785.696 128.679L786.703 123.073L782.477 123.108L778.524 143.328L782.845 143.296L785.306 132.49C785.306 132.49 787.56 125.495 793.615 128.309L795.151 123.221ZM800.26 140.406C799.094 140.417 798.247 139.681 798.239 138.517C798.234 137.355 799.485 136.181 800.757 135.536C802.017 134.896 806.129 133.489 806.129 133.489C806.161 138.347 801.432 140.392 800.26 140.406ZM805.72 121.974C805.72 121.974 800.218 122.433 796.974 125.523L796.378 130.289C796.378 130.289 799.838 126.563 803.326 126.532C806.803 126.507 809.057 129.665 803.465 131.501C797.868 133.344 793.339 134.325 793.382 139.934C793.428 145.529 801.996 145.042 804.802 139.735L804.304 143.126L808.523 143.087L811.477 128.582C811.477 128.582 813.217 121.913 805.72 121.974ZM827.804 121.899C821.88 121.948 819.3 128.519 819.3 128.519L820.414 122.803L815.865 122.841L812.125 143.269L816.665 143.228L819.207 131.166C819.207 131.166 820.449 126.816 824.354 126.788C828.265 126.759 827.133 130.676 826.935 131.948C826.735 133.217 824.59 143.065 824.59 143.065L829.342 143.026L832.288 127.78C832.288 127.78 833.716 121.848 827.804 121.899ZM842.921 121.885C838.584 121.916 834.495 125.645 834.529 129.878C834.562 134.102 839.312 134.701 840.052 134.913C840.807 135.109 842.391 135.625 842.407 137.212C842.422 138.796 838.43 142.738 833.307 136.869L832.614 141.528C832.614 141.528 834.412 143.721 838.007 143.695C841.61 143.665 846.773 140.87 846.73 136.116C846.694 131.359 840.876 131.202 839.385 129.945C837.896 128.685 839.982 126.135 842.529 126.117C845.058 126.095 847.3 128.822 847.3 128.822L848.319 124.273C848.319 124.273 847.244 121.846 842.921 121.885ZM859.599 121.641C855.168 121.679 848.237 126.384 848.308 135.046C848.375 143.717 856.74 146.921 862.604 139.801L863.002 136.302C863.002 136.302 860.389 139.923 856.583 139.956C852.783 139.984 852.435 135.448 852.629 133.955C852.83 132.477 854.155 126.445 859.122 126.403C864.08 126.363 864.637 129.74 864.637 129.74L865.655 124.662C865.655 124.662 864.04 121.606 859.599 121.641ZM880.182 130.678L870.255 130.758C870.255 130.758 871.69 126.202 876.345 126.163C880.993 126.125 880.182 130.677 880.182 130.677V130.678ZM876.622 121.717C871.129 121.758 865.152 128.261 865.218 135.656C865.275 143.062 873.81 146.954 880.784 139.865L881.18 136.482C881.18 136.482 879.312 139.979 874.127 140.018C868.945 140.057 869.544 134.566 869.544 134.566L882.325 134.466C882.325 134.466 883.767 130.116 883.324 127.475C882.885 124.835 882.116 121.673 876.622 121.716V121.717ZM899.547 122.059C893.643 122.109 891.051 128.69 891.051 128.69L892.161 122.973L887.621 123.008L883.874 143.437L888.42 143.401L890.969 131.33C890.969 131.33 892.188 126.983 896.114 126.956C900.02 126.923 898.88 130.842 898.686 132.11C898.488 133.382 896.346 143.225 896.346 143.225L901.103 143.185L904.046 127.948C904.046 127.948 905.47 122.014 899.547 122.059ZM919.871 130.708C919.919 136.565 915.656 139.687 913.594 139.707C911.541 139.719 909.932 137.995 909.907 135.211C909.888 132.446 911.825 126.882 916.111 126.845C920.379 126.811 919.871 130.708 919.871 130.708ZM922.611 117.919L920.709 127.127C920.709 127.127 920.428 121.984 915.434 122.017C910.439 122.059 905.264 128.673 905.322 135.81C905.381 142.936 912.555 148.196 918.583 138.717L917.513 143.166L922.02 143.132L927.209 117.882L922.611 117.919ZM933.403 121.847H933.773C934.298 121.847 934.63 121.824 934.755 121.784C934.881 121.744 934.984 121.677 935.056 121.572C935.132 121.474 935.172 121.352 935.168 121.228C935.171 121.108 935.132 120.991 935.059 120.896C934.982 120.795 934.875 120.721 934.753 120.684C934.617 120.644 934.295 120.623 933.773 120.623H933.403V121.846V121.847ZM932.489 124.408V119.917H933.403C934.261 119.917 934.741 119.917 934.847 119.924C935.146 119.951 935.383 120.012 935.553 120.104C935.717 120.198 935.859 120.34 935.975 120.536C936.086 120.726 936.142 120.941 936.142 121.179C936.142 121.503 936.037 121.781 935.825 122.013C935.611 122.239 935.316 122.385 934.934 122.439C935.065 122.488 935.174 122.545 935.246 122.608C935.362 122.711 935.465 122.827 935.553 122.953C935.587 122.998 935.698 123.182 935.888 123.499L936.415 124.408H935.277L934.903 123.677C934.654 123.187 934.44 122.877 934.275 122.748C934.107 122.617 933.898 122.557 933.641 122.557H933.403V124.408H932.489ZM934.413 118.726C933.823 118.728 933.244 118.88 932.729 119.166C932.192 119.457 931.767 119.874 931.458 120.421C931.153 120.969 930.995 121.541 930.995 122.141C930.995 122.735 931.144 123.299 931.448 123.841C931.747 124.38 932.174 124.801 932.713 125.102C933.231 125.401 933.817 125.558 934.415 125.558C935.012 125.558 935.599 125.401 936.117 125.102C936.649 124.809 937.087 124.372 937.382 123.841C937.686 123.299 937.839 122.735 937.839 122.141C937.839 121.541 937.682 120.968 937.373 120.421C937.077 119.89 936.636 119.454 936.101 119.166C935.584 118.88 935.003 118.729 934.413 118.726ZM934.413 117.88C935.139 117.88 935.841 118.066 936.511 118.434C937.178 118.793 937.728 119.338 938.093 120.002C938.466 120.652 938.664 121.387 938.666 122.136C938.666 122.878 938.478 123.583 938.103 124.253C937.737 124.914 937.193 125.459 936.532 125.824C935.886 126.192 935.156 126.386 934.413 126.388C933.668 126.387 932.937 126.193 932.29 125.824C931.629 125.459 931.084 124.914 930.719 124.253C930.348 123.609 930.153 122.879 930.154 122.136C930.154 121.392 930.345 120.683 930.726 120.002C931.092 119.339 931.641 118.794 932.309 118.434C932.983 118.066 933.68 117.881 934.411 117.881L934.413 117.88ZM753.055 120.782C752.948 120.513 752.834 120.247 752.714 119.984C748.078 109.851 734.663 106.522 722.753 112.553C715.924 116.01 711.075 121.788 709.049 127.998H726.537L723.077 145.227H732.029L735.487 127.998H741.356L743.145 119.526L718.735 119.503C724.543 112.929 733.166 109.698 740.306 112.07C744.608 113.496 747.593 116.698 749.002 120.782L753.055 120.782Z" fill="#1B2431"/>
<path fill-rule="evenodd" clip-rule="evenodd" d="M745.206 123.749L743.4 132.248H749.105C748.705 133.658 748.181 135.03 747.539 136.347C742.481 146.75 731.042 152.746 721.986 149.74C714.537 147.271 711.029 139.474 712.836 130.995H708.296C707.651 134.687 708.021 138.424 709.579 141.825C714.215 151.957 727.631 155.284 739.541 149.256C750.019 143.953 755.843 133.164 753.941 123.749L745.206 123.749Z" fill="#15C8B1"/>
<path fill-rule="evenodd" clip-rule="evenodd" d="M1059.77 141.824C1060.31 139.98 1062.17 138.877 1063.95 139.333C1065.81 139.888 1066.88 141.824 1066.43 143.663C1065.91 145.599 1064.04 146.702 1062.17 146.245C1060.39 145.691 1059.33 143.755 1059.77 141.824Z" fill="#FFDE31"/>
<path fill-rule="evenodd" clip-rule="evenodd" d="M1045.38 108.848C1045.73 108.939 1046.18 109.031 1046.53 109.214C1064.31 114.098 1074.44 134.265 1069.28 154.167C1069.19 154.715 1069.01 155.269 1068.84 155.823H1071.59C1071.86 154.994 1072.13 154.069 1072.39 153.241C1078.44 129.754 1066.44 106.083 1045.55 100.279C1045.29 100.189 1044.93 100.097 1044.67 100L1045.38 108.848Z" fill="#FFDE31"/>
<path fill-rule="evenodd" clip-rule="evenodd" d="M1092.03 113.173C1073.46 111.887 1055.68 125.516 1050.26 146.335C1049.46 149.466 1049.02 152.687 1048.84 155.824H1051.59C1051.77 153.704 1052.22 151.585 1052.75 149.375C1057.28 131.781 1072.3 120.266 1087.94 121.186L1092.03 113.173Z" fill="#FFDE31"/>
<path fill-rule="evenodd" clip-rule="evenodd" d="M1206.14 115.11C1206.14 116.401 1207.21 117.503 1208.45 117.503C1209.78 117.503 1210.76 116.401 1210.76 115.11C1210.76 113.728 1209.78 112.716 1208.45 112.716C1207.21 112.716 1206.14 113.728 1206.14 115.11Z" fill="#6B788E"/>
<path fill-rule="evenodd" clip-rule="evenodd" d="M1164.11 147.529C1165.71 148.821 1167.04 149.465 1168.64 149.465C1171.75 149.465 1174.06 146.883 1174.06 143.388C1174.06 137.677 1168.1 133.437 1168.1 130.027C1168.1 129.017 1168.73 128.28 1169.71 128.28C1170.77 128.28 1171.75 128.742 1173.17 129.937V125.978C1171.84 124.967 1170.59 124.504 1169.35 124.504C1166.5 124.504 1164.37 126.897 1164.37 130.027C1164.37 135.373 1170.15 139.886 1170.15 143.479C1170.15 144.581 1169.26 145.501 1168.1 145.501C1166.86 145.501 1165.79 144.764 1164.11 142.925V147.529ZM1177.26 161.535H1181.26V147.347H1181.35C1182.41 148.821 1183.48 149.465 1184.81 149.465C1188.73 149.465 1191.39 144.399 1191.39 137.305C1191.39 130.216 1188.55 124.778 1184.81 124.778C1183.48 124.778 1182.23 125.515 1181.35 126.897H1181.26V125.149H1177.26V161.535ZM1181.26 130.77C1181.7 129.662 1182.59 128.742 1183.66 128.742C1186.06 128.742 1187.22 131.598 1187.22 137.311C1187.22 143.942 1185.44 145.507 1184.1 145.507C1183.04 145.507 1182.24 144.862 1181.26 143.388V130.77ZM1194.15 148.821H1198.14V139.424C1198.14 136.665 1199.39 129.2 1202.5 129.2C1203.12 129.2 1203.65 129.296 1204.28 129.754L1204.54 125.515C1203.92 124.967 1203.3 124.778 1202.5 124.778C1200.63 124.778 1199.92 125.886 1198.32 131.598H1198.14V125.149H1194.14V148.821L1194.15 148.821ZM1206.5 125.149H1210.5V148.821H1206.5V125.149ZM1215.03 148.821H1219.03V131.319C1219.92 129.388 1220.89 128.463 1222.14 128.463C1223.83 128.463 1224.27 129.845 1224.27 131.873V148.821H1228.36V131.781C1228.36 127.079 1226.14 124.778 1223.3 124.778C1221.52 124.778 1220.36 125.613 1219.12 127.726H1219.03V125.149H1215.03V148.821ZM1246.22 128.742V125.149H1238.4C1233.96 125.149 1231.65 129.017 1231.65 134.082C1231.65 137.859 1232.8 140.532 1235.21 142.188C1233.07 143.107 1232 144.399 1232 145.963C1232 147.529 1232.8 148.638 1234.58 149.465C1232.09 150.574 1230.67 152.687 1230.67 155.269C1230.67 159.045 1233.87 161.808 1238.23 161.808C1242.93 161.808 1246.13 158.862 1246.13 154.532C1246.13 152.785 1245.6 150.847 1244.54 149.648C1241.07 146.152 1236.01 147.991 1236.01 144.953C1236.01 142.37 1239.29 144.308 1242.05 141.452C1243.55 139.886 1244.44 137.859 1244.44 134.546C1244.44 132.152 1244 130.307 1243.2 128.742H1246.22ZM1235.38 134.082C1235.38 130.582 1236.45 128.28 1238.14 128.28C1239.74 128.28 1240.8 130.672 1240.8 134.357C1240.8 137.859 1239.74 140.069 1238.14 140.069C1236.36 140.069 1235.38 137.767 1235.38 134.082ZM1234.31 154.715C1234.31 152.596 1235.83 151.03 1238.14 151.03C1240.54 151.03 1242.49 152.687 1242.49 154.715C1242.49 156.743 1240.71 158.308 1238.31 158.308C1235.92 158.308 1234.31 156.926 1234.31 154.715ZM1095.68 148.821H1099.67V131.044C1100.56 129.2 1101.63 128.28 1102.87 128.28C1104.38 128.28 1105.01 129.388 1105.01 131.69V148.821H1109.01V131.226C1109.01 126.252 1106.25 124.504 1104.03 124.504C1102.16 124.504 1101.01 125.332 1099.77 127.543H1099.67V113.172H1095.68L1095.68 148.821ZM1127.32 144.399C1126.51 145.136 1125.98 145.598 1125.72 145.598C1125.27 145.598 1125.09 145.228 1125.09 144.216V130.861C1125.09 126.531 1121.89 124.504 1119.05 124.504C1116.83 124.504 1115.32 125.241 1112.92 127.543V132.335C1115.32 129.571 1117 128.463 1118.7 128.463C1120.29 128.463 1121.09 129.479 1121.09 131.598V133.809C1114.78 137.677 1112.39 139.515 1112.39 143.479C1112.39 146.609 1114.43 149.465 1116.83 149.465C1118.34 149.465 1119.76 148.455 1121.18 146.335C1121.72 148.272 1122.69 149.283 1124.11 149.283C1125.01 149.283 1125.89 148.82 1127.32 147.535V144.399ZM1121.09 142.742C1120.38 144.491 1119.31 145.507 1118.25 145.507C1117.18 145.507 1116.29 144.399 1116.29 142.834C1116.29 140.715 1117.8 138.778 1121.09 136.665V142.742ZM1129.89 148.821H1133.89V131.319C1134.78 129.388 1135.76 128.463 1137 128.463C1138.69 128.463 1139.13 129.845 1139.13 131.873V148.821H1143.22V131.781C1143.22 127.079 1141 124.778 1138.16 124.778C1136.37 124.778 1135.22 125.613 1133.98 127.726H1133.89V125.149H1129.89V148.821ZM1160.9 148.821V113.172H1156.82V126.441C1155.75 125.149 1154.78 124.504 1153.26 124.504C1149.35 124.504 1146.69 129.662 1146.69 137.03C1146.69 144.953 1149.8 149.192 1153.08 149.192C1154.51 149.192 1155.75 148.455 1156.73 146.981H1156.82V148.821H1160.9ZM1156.82 142.742C1156.11 144.308 1155.22 144.953 1154.07 144.953C1151.93 144.953 1150.78 142.28 1150.78 137.122C1150.78 131.69 1152.11 128.463 1154.24 128.463C1155.4 128.463 1156.37 129.291 1156.82 130.77V142.742ZM1251.73 125.149V125.607H1250.4V129.2H1249.87V125.607H1248.63V125.149H1251.73ZM1252.18 125.149H1252.89L1254.04 128.553L1255.11 125.149H1255.82V129.2H1255.38V125.796L1254.31 129.2H1253.78L1252.62 125.796V125.886C1252.62 125.978 1252.62 126.161 1252.71 126.344V129.2H1252.18V125.149Z" fill="#252C36"/>
<defs>
<clipPath id="clip0_1_188">
<rect width="215.047" height="35" fill="white" transform="translate(317.822 2.5)"/>
</clipPath>
<clipPath id="clip1_1_188">
<rect width="145.387" height="40" fill="white" transform="translate(884.27)"/>
</clipPath>
<clipPath id="clip2_1_188">
<rect width="184.324" height="40" fill="white" transform="translate(1135.66)"/>
</clipPath>
</defs>
</svg>
