<svg width="120" height="120" viewBox="0 0 120 120" fill="none" xmlns="http://www.w3.org/2000/svg">
<circle cx="60" cy="60" r="60" fill="#1E57EE"/>
<g clip-path="url(#clip0_1_2797)">
<path d="M34.0199 64.6652C35.0718 69.9255 37.6575 74.7565 41.45 78.5497C45.2431 82.3423 50.0742 84.9279 55.3345 85.9793C55.6109 86.0347 55.898 85.977 56.1318 85.8198C56.3663 85.6626 56.528 85.4186 56.5817 85.1416C56.6354 84.8646 56.5767 84.5782 56.4183 84.3448C56.26 84.1115 56.0149 83.9509 55.7379 83.8983C50.8917 82.9292 46.4412 80.5477 42.9468 77.0529C39.452 73.5585 37.07 69.108 36.1014 64.2618C35.9872 63.6894 35.4322 63.3167 34.8597 63.4281C34.2868 63.5394 33.9119 64.0922 34.0199 64.6652H34.0199Z" fill="white"/>
<path d="M86.9795 64.6652C87.0349 64.3888 86.9773 64.1017 86.82 63.8678C86.6628 63.6339 86.4189 63.4717 86.1419 63.418C85.8649 63.3643 85.5784 63.4236 85.3451 63.5813C85.1118 63.7397 84.9512 63.9848 84.8986 64.2618C83.9294 69.1079 81.5474 73.5585 78.0532 77.0529C74.5588 80.5477 70.1076 82.9291 65.2614 83.8983C64.9845 83.9509 64.74 84.1115 64.5816 84.3448C64.4232 84.5781 64.3645 84.8646 64.4182 85.1416C64.4719 85.4186 64.6336 85.6625 64.8675 85.8198C65.102 85.977 65.389 86.0346 65.6654 85.9792C70.9257 84.9279 75.7562 82.3422 79.5494 78.5497C83.3424 74.7566 85.9281 69.9255 86.9795 64.6652H86.9795Z" fill="white"/>
<path d="M86.9793 54.3339C85.928 49.0742 83.3423 44.2432 79.5492 40.45C75.7561 36.6568 70.9256 34.0718 65.6653 33.0198C65.0917 32.9113 64.5389 33.2867 64.4276 33.8597C64.3168 34.4327 64.6894 34.9872 65.2613 35.1013C70.1075 36.0699 74.5586 38.4519 78.053 41.9462C81.5474 45.441 83.9292 49.8917 84.8984 54.7379C84.951 55.0149 85.1116 55.2594 85.3449 55.4177C85.5783 55.5761 85.8647 55.6348 86.1417 55.5811C86.4187 55.5274 86.6626 55.3657 86.8199 55.1318C86.9771 54.8979 87.0347 54.6103 86.9794 54.3339H86.9793Z" fill="white"/>
<path d="M55.3357 33.0198C50.0754 34.0718 45.2444 36.6569 41.4512 40.45C37.6586 44.243 35.0731 49.0742 34.0211 54.3339C33.9663 54.6103 34.0239 54.8979 34.1811 55.1318C34.3384 55.3657 34.5823 55.5274 34.8593 55.5811C35.1357 55.6348 35.4227 55.5761 35.6561 55.4177C35.8894 55.2594 36.05 55.0149 36.1026 54.7379C37.0712 49.8917 39.4532 45.4412 42.948 41.9462C46.4424 38.4518 50.893 36.07 55.7391 35.1013C56.3116 34.9872 56.6842 34.4327 56.5734 33.8597C56.4621 33.2867 55.9087 32.9113 55.3357 33.0198H55.3357Z" fill="white"/>
<path d="M60.4996 56.3196C59.6592 56.3202 58.8529 56.6531 58.257 57.2457C57.6611 57.8388 57.3242 58.6434 57.3203 59.4838C57.3164 60.3248 57.6448 61.1328 58.2351 61.7315C58.8249 62.3302 59.6279 62.6709 60.4683 62.6793C61.3093 62.6877 62.1189 62.3632 62.7205 61.7762C63.322 61.1893 63.6673 60.388 63.6796 59.5475C62.8207 59.6516 61.9645 59.3349 61.3809 58.6959C60.7968 58.0575 60.5579 57.1762 60.7386 56.3301C60.6591 56.3251 60.5791 56.3195 60.4997 56.3195L60.4996 56.3196Z" fill="white"/>
<path d="M50.9596 59.4996C50.9596 62.0299 51.9651 64.4561 53.754 66.2455C55.5428 68.0343 57.9696 69.0393 60.4993 69.0393C63.0295 69.0393 65.4558 68.0344 67.2452 66.2455C69.034 64.4561 70.039 62.0299 70.039 59.4996C70.039 56.97 69.034 54.5432 67.2452 52.7543C65.4558 50.9655 63.0295 49.96 60.4993 49.96C57.9696 49.9605 55.5434 50.9655 53.754 52.7543C51.9652 54.5437 50.9602 56.97 50.9596 59.4996ZM65.4314 59.4996C65.4314 60.8078 64.9122 62.0624 63.9873 62.9879C63.0618 63.9128 61.8073 64.432 60.499 64.432C59.1908 64.432 57.9363 63.9128 57.0114 62.9879C56.0864 62.0624 55.5666 60.8079 55.5666 59.4996C55.5666 58.1914 56.0864 56.9369 57.0114 56.012C57.9363 55.087 59.1908 54.5672 60.499 54.5672C61.8073 54.5672 63.0618 55.087 63.9873 56.012C64.9122 56.9369 65.4314 58.1914 65.4314 59.4996Z" fill="white"/>
<path d="M41.951 59.5001C41.951 64.4197 43.905 69.1376 47.3837 72.6163C50.8623 76.0949 55.5804 78.0495 60.4998 78.0495C65.4192 78.0495 70.1373 76.0949 73.616 72.6163C77.0946 69.1376 79.0492 64.4195 79.0492 59.5001C79.0492 54.5807 77.0946 49.8626 73.616 46.384C70.1373 42.9053 65.4192 40.9514 60.4998 40.9514C55.582 40.9564 50.8673 42.9125 47.3898 46.3901C43.9123 49.8676 41.9561 54.5823 41.951 59.5001ZM72.1595 59.5001C72.1595 62.5927 70.9313 65.5583 68.7446 67.745C66.5579 69.9318 63.5923 71.1599 60.4997 71.1599C57.4076 71.1599 54.4421 69.9317 52.2553 67.745C50.0686 65.5583 48.8404 62.5927 48.8404 59.5001C48.8404 56.4081 50.0686 53.4425 52.2553 51.2558C54.4421 49.0691 57.4076 47.8409 60.4997 47.8409C63.5911 47.8443 66.5545 49.0741 68.7406 51.2597C70.9262 53.4458 72.1555 56.4091 72.1593 59.5L72.1595 59.5001Z" fill="white"/>
</g>
<defs>
<clipPath id="clip0_1_2797">
<rect width="53" height="53" fill="white" transform="translate(34 33)"/>
</clipPath>
</defs>
</svg>
