<svg width="79" height="78" viewBox="0 0 79 78" fill="none" xmlns="http://www.w3.org/2000/svg">
<circle cx="39.2" cy="39" r="39" fill="url(#paint0_linear_1_2289)"/>
<path d="M29.45 40.9502C29.45 41.5967 29.7068 42.2166 30.164 42.6738C30.6211 43.1309 31.2411 43.3877 31.8875 43.3877C32.534 43.3877 33.154 43.1309 33.6111 42.6738C34.0682 42.2166 34.325 41.5967 34.325 40.9502C34.325 40.3037 34.0682 39.6837 33.6111 39.2266C33.154 38.7695 32.534 38.5127 31.8875 38.5127C31.2411 38.5127 30.6211 38.7695 30.164 39.2266C29.7068 39.6837 29.45 40.3037 29.45 40.9502ZM44.1926 46.1604C43.1871 46.9525 41.1936 47.8057 39.2 47.8057C37.2065 47.8057 35.213 46.9525 34.2075 46.1604C33.5807 45.6685 32.671 45.773 32.1748 46.3998C31.6786 47.0265 31.7874 47.9362 32.4142 48.4325C34.164 49.8123 36.8278 50.7002 39.2 50.7002C41.5723 50.7002 44.2361 49.8123 45.9859 48.4325C46.2872 48.1946 46.4817 47.8469 46.5266 47.4657C46.5715 47.0845 46.4631 46.701 46.2253 46.3998C45.9875 46.0985 45.6397 45.904 45.2585 45.8591C44.8773 45.8142 44.4939 45.9225 44.1926 46.1604V46.1604ZM58.7 36.0752C58.7 33.3809 56.5194 31.2002 53.825 31.2002C51.9926 31.2002 50.3995 32.21 49.5638 33.7073C47.0566 32.3362 44.0054 31.4527 40.68 31.2481L43.5919 24.7147L49.159 26.3208C49.6595 27.7398 51.0132 28.7627 52.6063 28.7627C54.6259 28.7627 56.2625 27.1261 56.2625 25.1064C56.2625 23.0868 54.6259 21.4502 52.6063 21.4502C51.2134 21.4502 50.0034 22.2293 49.3853 23.3741L43.1827 21.5808C42.8472 21.4833 42.4876 21.5107 42.1707 21.658C41.8538 21.8052 41.601 22.0623 41.4591 22.3817L37.5069 31.2568C34.2641 31.4831 31.2869 32.3624 28.8363 33.703C28.4137 32.9437 27.7958 32.3113 27.0465 31.8713C26.2973 31.4312 25.444 31.1995 24.575 31.2002C21.8807 31.2002 19.7 33.3809 19.7 36.0752C19.7 38.0687 20.897 39.7793 22.6076 40.5367C22.2986 41.4508 22.1375 42.4083 22.1375 43.3877C22.1375 50.1169 29.7765 55.5752 39.2 55.5752C48.6236 55.5752 56.2625 50.1169 56.2625 43.3877C56.2625 42.404 56.0971 41.4508 55.7925 40.5367C57.5031 39.7793 58.7 38.0687 58.7 36.0752ZM52.6063 23.7354C52.7863 23.7354 52.9646 23.7708 53.131 23.8397C53.2973 23.9086 53.4485 24.0096 53.5758 24.1369C53.7031 24.2643 53.8041 24.4154 53.873 24.5818C53.9419 24.7481 53.9774 24.9264 53.9774 25.1064C53.9774 25.2865 53.9419 25.4648 53.873 25.6311C53.8041 25.7975 53.7031 25.9486 53.5758 26.076C53.4485 26.2033 53.2973 26.3043 53.131 26.3732C52.9646 26.4421 52.7863 26.4775 52.6063 26.4775C52.2427 26.4775 51.8939 26.3331 51.6368 26.076C51.3797 25.8188 51.2352 25.4701 51.2352 25.1064C51.2352 24.7428 51.3797 24.3941 51.6368 24.1369C51.8939 23.8798 52.2427 23.7354 52.6063 23.7354V23.7354ZM22.1375 36.0752C22.1375 34.7302 23.2301 33.6377 24.575 33.6377C25.0368 33.6381 25.489 33.7696 25.8789 34.0169C26.2688 34.2643 26.5804 34.6173 26.7775 35.0349C25.5022 36.0012 24.4488 37.1155 23.6653 38.3386C23.2146 38.1558 22.8285 37.8429 22.5564 37.4398C22.2843 37.0366 22.1385 36.5616 22.1375 36.0752V36.0752ZM39.2 52.6807C31.3739 52.6807 25.0321 48.5195 25.0321 43.3877C25.0321 38.2559 31.3739 34.0947 39.2 34.0947C47.0262 34.0947 53.368 38.2559 53.368 43.3877C53.368 48.5195 47.0262 52.6807 39.2 52.6807ZM54.7304 38.3386C53.9513 37.1155 52.8936 36.0012 51.6182 35.0349C52.01 34.2122 52.85 33.6377 53.8207 33.6377C55.1657 33.6377 56.2582 34.7302 56.2582 36.0752C56.2625 37.0981 55.6271 37.9773 54.7304 38.3386ZM44.075 40.9502C44.075 41.5967 44.3319 42.2166 44.789 42.6738C45.2461 43.1309 45.8661 43.3877 46.5125 43.3877C47.159 43.3877 47.779 43.1309 48.2361 42.6738C48.6932 42.2166 48.95 41.5967 48.95 40.9502C48.95 40.3037 48.6932 39.6837 48.2361 39.2266C47.779 38.7695 47.159 38.5127 46.5125 38.5127C45.8661 38.5127 45.2461 38.7695 44.789 39.2266C44.3319 39.6837 44.075 40.3037 44.075 40.9502Z" fill="white"/>
<defs>
<linearGradient id="paint0_linear_1_2289" x1="-5.78412" y1="78" x2="85.4222" y2="11.5556" gradientUnits="userSpaceOnUse">
<stop stop-color="#1E5CEF"/>
<stop offset="1" stop-color="#1DD6FF"/>
</linearGradient>
</defs>
</svg>
