<svg width="120" height="120" viewBox="0 0 120 120" fill="none" xmlns="http://www.w3.org/2000/svg">
<circle cx="60" cy="60" r="60" fill="#1E57EE"/>
<path d="M40.3377 61.9676C39.6091 61.9676 38.91 62.262 38.3943 62.7851C37.8791 63.3081 37.5899 64.018 37.5899 64.7576V76.5166C37.5899 78.7365 38.4583 80.8654 40.0043 82.4353C41.5504 84.0052 43.647 84.8868 45.8333 84.8868H75.1676C77.3539 84.8868 79.4505 84.0051 80.9966 82.4353C82.5427 80.8654 83.411 78.7365 83.411 76.5166V60.1019C84.7113 59.5818 85.838 58.6956 86.6584 57.5472C88.0787 55.4603 88.393 52.7957 87.4974 50.427L84.2314 40.8058C83.7619 39.4369 82.884 38.2496 81.7206 37.4089C80.5571 36.5683 79.1649 36.1155 77.7365 36.1132H43.2629C41.8353 36.1155 40.4429 36.5683 39.2794 37.4089C38.1152 38.2495 37.238 39.4369 36.7678 40.8058L33.5026 50.427C32.607 52.7957 32.9213 55.4601 34.3415 57.5472C35.9039 59.6545 38.3831 60.8521 40.9793 60.7544C43.4431 60.7215 45.8288 59.8756 47.7775 58.3445C49.4716 59.9189 51.691 60.7804 53.9871 60.7544C56.367 60.7566 58.6725 59.91 60.4997 58.3625C62.3277 59.91 64.6332 60.7567 67.0131 60.7544C69.3092 60.7805 71.5287 59.919 73.2227 58.3445C74.6099 59.4078 76.2126 60.1438 77.9155 60.5003V76.4811C77.9155 77.2208 77.6255 77.9307 77.1104 78.4536C76.5953 78.9766 75.8962 79.2711 75.1677 79.2711H69.1901V71.3715C69.185 69.1238 68.3041 66.9696 66.7388 65.3811C65.1735 63.7918 63.0527 62.8967 60.8391 62.8921H60.2681C58.0568 62.8966 55.9374 63.7925 54.375 65.3819C52.8127 66.972 51.9356 69.1254 51.9356 71.3715V79.3981L45.8327 79.3973C45.1041 79.3973 44.405 79.1037 43.89 78.5806C43.3741 78.0568 43.0849 77.3477 43.0849 76.6073V64.758C43.0849 64.0183 42.7957 63.3084 42.2799 62.7855C41.7647 62.2624 41.0656 61.968 40.3372 61.968L40.3377 61.9676ZM75.1503 52.3832L75.1496 52.3839C74.647 51.5859 73.7808 51.1017 72.8484 51.0972H72.4555C71.9359 51.1712 71.448 51.3953 71.0499 51.7421C70.651 52.0888 70.3589 52.5438 70.2073 53.0542C69.9696 53.7057 69.5288 54.2617 68.9533 54.6375C68.3771 55.0134 67.6964 55.189 67.0135 55.1374C66.1826 55.1449 65.3658 54.9192 64.6542 54.4843C63.9419 54.0487 63.3627 53.4225 62.9808 52.6738C62.6879 52.0282 62.1625 51.5209 61.5127 51.2571C60.8629 50.9941 60.138 50.9941 59.4882 51.2571C58.8377 51.5209 58.3123 52.0282 58.0201 52.6738C57.6375 53.4226 57.0583 54.0487 56.3467 54.4843C55.6351 54.9192 54.8182 55.1449 53.9875 55.1374C53.3046 55.189 52.6238 55.0134 52.0476 54.6375C51.4714 54.2617 51.0313 53.7057 50.7937 53.0542C50.5905 52.3697 50.1372 51.7899 49.5264 51.435C48.9149 51.08 48.193 50.9769 47.5093 51.1465C46.8257 51.3162 46.2318 51.7458 45.8506 52.3473C44.7652 54.0203 42.9511 55.059 40.9798 55.1374C40.1644 55.2166 39.3608 54.8931 38.8206 54.2677C38.4475 53.6422 38.4012 52.8696 38.6955 52.2023L41.9607 42.5999C42.1565 42.0387 42.6775 41.6621 43.2633 41.6576H77.7368C78.3233 41.6621 78.8443 42.0387 79.0394 42.5999L82.3045 52.2023H82.3053C82.5996 52.8696 82.5533 53.6422 82.1802 54.2677C81.6393 54.8931 80.8364 55.2166 80.021 55.1374C78.0554 55.0672 76.2436 54.0427 75.1495 52.3838L75.1503 52.3832ZM57.4313 71.3715C57.4313 70.6056 57.7293 69.8711 58.2614 69.3278C58.7927 68.7846 59.5139 68.4775 60.2681 68.4722H60.8392C61.5964 68.4722 62.3227 68.7778 62.8578 69.3211C63.3935 69.865 63.6945 70.6025 63.6945 71.3715V79.3981L57.4313 79.3973L57.4313 71.3715Z" fill="white"/>
</svg>
