<svg width="20" height="20" viewBox="0 0 20 20" fill="none" xmlns="http://www.w3.org/2000/svg">
<path d="M10.0103 19.9902C12.2323 19.9889 14.3904 19.2474 16.1443 17.8825C17.8977 16.5178 19.1464 14.6075 19.6928 12.4536C20.2394 10.2999 20.0529 8.02554 19.1625 5.98959C19.0149 5.65308 18.6992 5.4207 18.334 5.37999C17.9687 5.33949 17.6097 5.49661 17.3917 5.79263C17.174 6.08864 17.1307 6.47839 17.2781 6.81489C18.2902 9.12404 18.1443 11.7767 16.8849 13.9607C15.6254 16.1448 13.4026 17.5998 10.8975 17.8804C8.392 18.1609 5.90235 17.2336 4.19081 15.3822C2.47942 13.5309 1.7504 10.9762 2.22662 8.50022C2.70308 6.02464 4.32798 3.92284 6.60429 2.83848C8.88039 1.75429 11.5362 1.81709 13.7588 3.00727C13.9993 3.17033 14.2974 3.22419 14.5796 3.15528C14.8621 3.08637 15.1019 2.90146 15.2404 2.64595C15.3786 2.39044 15.4024 2.0883 15.3059 1.81433C15.2092 1.54037 15.0012 1.31985 14.7331 1.20766C12.9422 0.241586 10.8987 -0.154735 8.87653 0.0719514C6.85432 0.298638 4.94947 1.13769 3.41727 2.47653C1.88486 3.81537 0.797671 5.59016 0.301523 7.56368C-0.194626 9.5372 -0.0763374 11.6152 0.640581 13.5196C1.35772 15.4242 2.63907 17.0642 4.3136 18.2205C5.98835 19.3767 7.97603 19.994 10.0106 19.9898L10.0103 19.9902Z" fill="#1C2335"/>
<path d="M5.82789 6.96998C5.56199 6.71595 5.18094 6.62308 4.82788 6.72634C4.47504 6.8296 4.20406 7.11332 4.1171 7.47062C4.03016 7.82791 4.14042 8.20453 4.40632 8.4583L8.93094 12.7848H8.93073C9.12178 12.9676 9.37602 13.0698 9.64043 13.0702H9.67902H9.67881C9.95637 13.0596 10.218 12.9373 10.4038 12.731L19.1005 3.05988C19.346 2.78677 19.4272 2.40316 19.3136 2.05374C19.1997 1.7045 18.9081 1.44219 18.5487 1.36608C18.1893 1.28996 17.8166 1.41146 17.5708 1.68457L9.58624 10.5637L5.82789 6.96998Z" fill="#1C2335"/>
</svg>
