<svg width="75" height="75" viewBox="0 0 75 75" fill="none" xmlns="http://www.w3.org/2000/svg">
<circle cx="37.5" cy="37.5" r="37.5" fill="#1E57EE"/>
<path d="M37.4995 25.0107C30.61 25.0107 25.0103 30.6108 25.0103 37.5C25.0103 44.3897 30.6103 49.99 37.4995 49.99C44.3892 49.99 49.9895 44.39 49.9895 37.5C49.9895 30.6105 44.3895 25.0107 37.4995 25.0107ZM38.4944 34.627C38.7154 34.627 38.9366 34.8112 38.9366 35.0692V36.3586C38.9366 36.5795 38.7524 36.8007 38.4944 36.8007H34.0735C34.0367 37.0587 34.0367 37.2796 34.0367 37.5006C34.0367 37.7215 34.0367 37.9427 34.0735 38.2004H38.4944C38.7154 38.2004 38.9366 38.3846 38.9366 38.6426V39.932C38.9366 40.1529 38.7524 40.3741 38.4944 40.3741L34.7733 40.3744C35.5838 41.7744 36.9103 42.6587 38.3471 42.6587C39.3417 42.6587 40.3366 42.2533 41.1104 41.4797C41.2945 41.3323 41.5158 41.2955 41.6999 41.4797L43.1367 42.8062C43.2103 42.8797 43.2841 42.9903 43.2841 43.1009C43.2841 43.2115 43.2473 43.3218 43.1735 43.4325C41.847 44.759 40.1525 45.4956 38.3471 45.4956C35.3997 45.4956 32.7471 43.4325 31.6786 40.3745H30.1312C29.9103 40.3745 29.689 40.1903 29.689 39.9323V38.6429C29.689 38.422 29.8732 38.2008 30.1312 38.2008H31.2364C31.1997 37.9428 31.1997 37.7219 31.1997 37.5009C31.1997 37.28 31.1997 37.0588 31.2364 36.8011H30.1312C29.9103 36.8011 29.689 36.6169 29.689 36.3589V35.0695C29.689 34.8486 29.8732 34.6274 30.1312 34.6274H31.6786C32.7471 31.5693 35.3997 29.5063 38.3471 29.5063C40.1154 29.5063 41.847 30.2432 43.1735 31.6061C43.247 31.6797 43.2841 31.7903 43.2841 31.9377C43.2841 32.0483 43.2473 32.1586 43.1367 32.2324L41.6999 33.5589C41.5158 33.7063 41.2578 33.7063 41.1104 33.5589C40.2996 32.7849 39.3418 32.3428 38.3471 32.3428C36.9103 32.3428 35.5838 33.2271 34.7733 34.6271L38.4944 34.627Z" fill="white"/>
<path d="M37.5001 20C27.8472 20 20 27.8472 20 37.5001C20 47.1529 27.8472 55.0001 37.5001 55.0001C47.1529 55.0001 55.0001 47.1521 55.0001 37.5001C55.0001 27.848 47.1521 20 37.5001 20ZM37.5001 51.9054C29.5424 51.9054 23.0947 45.4581 23.0947 37.5001C23.095 29.5424 29.5423 23.0947 37.5001 23.0947C45.4578 23.0947 51.9054 29.542 51.9054 37.5001C51.9054 45.4581 45.4578 51.9054 37.5001 51.9054Z" fill="white"/>
</svg>
