<svg width="75" height="75" viewBox="0 0 75 75" fill="none" xmlns="http://www.w3.org/2000/svg">
<circle cx="37.5" cy="37.5" r="37.5" fill="#1E57EE"/>
<path d="M33.2799 20C29.0611 21.0715 25.4454 23.7116 23.0506 27.2854H29.0423C29.3914 26.1876 29.7916 25.1444 30.2482 24.2061C31.0746 22.5077 32.0981 21.0437 33.2804 20H33.2799ZM41.7195 20C42.9018 21.0432 43.9259 22.5073 44.7517 24.2061C45.2083 25.1443 45.6085 26.188 45.9576 27.2854H51.9493C49.5545 23.7116 45.9388 21.0715 41.72 20H41.7195ZM36.3305 20.9015C34.9159 21.4278 33.5075 22.8928 32.3484 25.2761C32.0495 25.8902 31.7795 26.5706 31.5263 27.2853H36.3305L36.3305 20.9015ZM38.6684 20.9015V27.2853H43.4726C43.2195 26.5707 42.9495 25.8902 42.6505 25.2761C41.491 22.8928 40.0831 21.4273 38.6684 20.9015H38.6684ZM21.6992 29.6891C20.7517 31.7102 20.1519 33.9443 20 36.2985H27.5991C27.671 33.9578 27.9453 31.7339 28.4029 29.6891H21.6992ZM30.8143 29.6891C30.323 31.6913 29.9994 33.9215 29.9194 36.2985H36.331V29.6891H30.8143ZM38.6691 29.6891V36.2985H45.0807C45.0006 33.9216 44.6766 31.6914 44.1858 29.6891H38.6691ZM46.597 29.6891C47.0546 31.7339 47.3289 33.9578 47.4008 36.2985H54.9999C54.8485 33.9443 54.2487 31.7102 53.3008 29.6891H46.597ZM20.0001 38.7021C20.1515 41.0563 20.7513 43.2904 21.6993 45.3115H28.4031C27.9445 43.2677 27.6707 41.0459 27.5993 38.7021H20.0001ZM29.9189 38.7021C29.999 41.0755 30.3234 43.3146 30.8138 45.3115H36.3305V38.7021H29.9189ZM38.6691 38.7021V45.3115H44.1858C44.6762 43.3153 45.0006 41.0755 45.0807 38.7021H38.6691ZM47.4008 38.7021C47.3295 41.0459 47.0556 43.2675 46.5971 45.3115H53.3008C54.2483 43.2904 54.8481 41.0563 55 38.7021H47.4008ZM23.0503 47.7146C25.4519 51.2983 29.0825 53.934 33.3163 55C32.1211 53.9503 31.0806 52.4878 30.2475 50.7755C29.7909 49.8368 29.3907 48.8104 29.0416 47.7146H23.0499H23.0503ZM31.5261 47.7146C31.7788 48.4258 32.0502 49.0929 32.3482 49.705C33.5078 52.0884 34.9157 53.5866 36.3303 54.1173V47.7146H31.5261ZM38.6687 47.7146V54.1173C40.0833 53.5865 41.4917 52.0884 42.6508 49.705C42.9488 49.093 43.2202 48.4259 43.4729 47.7146H38.6687ZM45.9574 47.7146C45.6083 48.8104 45.2081 49.8369 44.7515 50.7755C43.9184 52.4883 42.8779 53.9502 41.6827 55C45.9165 53.934 49.5476 51.2983 51.9487 47.7146H45.957H45.9574Z" fill="white"/>
</svg>
